<?xml version="1.0" encoding="UTF-8" standalone="no"?>
<svg
   xmlns:dc="http://purl.org/dc/elements/1.1/"
   xmlns:cc="http://creativecommons.org/ns#"
   xmlns:rdf="http://www.w3.org/1999/02/22-rdf-syntax-ns#"
   xmlns:svg="http://www.w3.org/2000/svg"
   xmlns="http://www.w3.org/2000/svg"
   xmlns:sodipodi="http://sodipodi.sourceforge.net/DTD/sodipodi-0.dtd"
   xmlns:inkscape="http://www.inkscape.org/namespaces/inkscape"
   width="770"
   height="627.07001"
   version="1.0"
   id="svg2"
   inkscape:version="0.91 r13725"
   sodipodi:docname="CT.svg">
  <defs
     id="defs9439" />
  <sodipodi:namedview
     pagecolor="#ffffff"
     bordercolor="#666666"
     borderopacity="1"
     objecttolerance="10"
     gridtolerance="10"
     guidetolerance="10"
     inkscape:pageopacity="0"
     inkscape:pageshadow="2"
     inkscape:window-width="1680"
     inkscape:window-height="1006"
     id="namedview9437"
     showgrid="false"
     showguides="true"
     inkscape:zoom="0.6495081"
     inkscape:cx="573.06851"
     inkscape:cy="386.60956"
     inkscape:window-x="0"
     inkscape:window-y="0"
     inkscape:window-maximized="0"
     inkscape:current-layer="layer2"
     inkscape:snap-global="false" />
  <metadata
     id="metadata4">
    <rdf:RDF>
      <cc:Work>
        <dc:format>image/svg+xml</dc:format>
        <dc:type
           rdf:resource="http://purl.org/dc/dcmitype/StillImage" />
        <dc:title></dc:title>
        <cc:license
           rdf:resource="http://creativecommons.org/publicdomain/zero/1.0/" />
        <dc:date>2019-10-06</dc:date>
        <dc:creator>
          <cc:Agent>
            <dc:title>U.S. Census Bureau, Abe.suleiman, Lokal_Profil</dc:title>
          </cc:Agent>
        </dc:creator>
        <dc:source>https://commons.wikimedia.org/wiki/File:Usa_counties_large.svg</dc:source>
      </cc:Work>
      <cc:License
         rdf:about="http://creativecommons.org/publicdomain/zero/1.0/">
        <cc:permits
           rdf:resource="http://creativecommons.org/ns#Reproduction" />
        <cc:permits
           rdf:resource="http://creativecommons.org/ns#Distribution" />
        <cc:permits
           rdf:resource="http://creativecommons.org/ns#DerivativeWorks" />
      </cc:License>
    </rdf:RDF>
  </metadata>
  <style
     id="style6">
  #counties {fill:#d0d0d0;stroke:#000;stroke-width:.17829;} 
  #borders {fill:none;stroke:#221e1f;stroke-width:.89143;} 
  #separator {fill:none;stroke:#a9a9a9;stroke-width:2.3177309;}
  #legend-1 {fill:#ff0000;}
  #legend-2 {fill:#ff6a32;}
  #legend-3 {fill:#ffb866;}
  #legend-4 {fill:#ffeb99;}
  #legend-5 {fill:#faffcc;}
  #c09001 {fill:#ff5929;}
  #c09003 {fill:#ff6831;}
  #c09005 {fill:#ff954c;}
  #c09007 {fill:#ff8945;}
  #c09009 {fill:#ff602d;}
  #c09011 {fill:#ff964d;}
  #c09013 {fill:#ff8f49;}
  #c09015 {fill:#ffa356;}
 </style>
  <g
     inkscape:groupmode="layer"
     id="layer1"
     inkscape:label="Legend"
     style="display:inline"
     transform="translate(0,8.0273438e-6)">
    <g
       id="g10509"
       transform="translate(-204.77035,67.743574)">
      <rect
         y="398.82034"
         x="876.81744"
         height="112.00786"
         width="56.966187"
         id="rect10421"
         style="fill:#ffffff;fill-opacity:1;stroke:#000000;stroke-width:1;stroke-linecap:round;stroke-linejoin:miter;stroke-miterlimit:4;stroke-dasharray:none;stroke-dashoffset:0;stroke-opacity:1" />
      <rect
         y="405.30087"
         x="882.40851"
         height="10.614635"
         width="10.614635"
         id="legend-1"
         style="stroke:#000000;stroke-width:1" />
      <rect
         style="stroke:#000000;stroke-width:1"
         id="legend-2"
         width="10.614635"
         height="10.614635"
         x="882.40851"
         y="419.30087" />
      <rect
         y="433.30087"
         x="882.40851"
         height="10.614635"
         width="10.614635"
         id="legend-3"
         style="stroke:#000000;stroke-width:1" />
      <rect
         style="stroke:#000000;stroke-width:1"
         id="legend-4"
         width="10.614635"
         height="10.614635"
         x="882.40851"
         y="447.30087" />
      <rect
         y="461.30087"
         x="882.40851"
         height="10.614635"
         width="10.614635"
         id="legend-5"
         style="stroke:#000000;stroke-width:1" />
      <text
         sodipodi:linespacing="125%"
         id="text10456"
         y="413.23941"
         x="897.33807"
         style="font-style:normal;font-weight:normal;font-size:7.5px;line-height:125%;font-family:sans-serif;letter-spacing:0px;word-spacing:0px;fill:#000000;fill-opacity:1;stroke:none;stroke-width:1px;stroke-linecap:butt;stroke-linejoin:miter;stroke-opacity:1"
         xml:space="preserve"><tspan
           style="font-style:normal;font-variant:normal;font-weight:normal;font-stretch:normal;font-family:Arial;-inkscape-font-specification:Arial"
           y="413.23941"
           x="897.33807"
           id="tspan10458"
           sodipodi:role="line">657</tspan></text>
      <text
         xml:space="preserve"
         style="font-style:normal;font-weight:normal;font-size:7.5px;line-height:125%;font-family:sans-serif;letter-spacing:0px;word-spacing:0px;fill:#000000;fill-opacity:1;stroke:none;stroke-width:1px;stroke-linecap:butt;stroke-linejoin:miter;stroke-opacity:1"
         x="897.33807"
         y="427.23941"
         id="text10460"
         sodipodi:linespacing="125%"><tspan
           sodipodi:role="line"
           id="tspan10462"
           x="897.33807"
           y="427.23941"
           style="font-style:normal;font-variant:normal;font-weight:normal;font-stretch:normal;font-family:Arial;-inkscape-font-specification:Arial">11</tspan></text>
      <text
         sodipodi:linespacing="125%"
         id="text10464"
         y="441.23941"
         x="897.33807"
         style="font-style:normal;font-weight:normal;font-size:7.5px;line-height:125%;font-family:sans-serif;letter-spacing:0px;word-spacing:0px;fill:#000000;fill-opacity:1;stroke:none;stroke-width:1px;stroke-linecap:butt;stroke-linejoin:miter;stroke-opacity:1"
         xml:space="preserve"><tspan
           style="font-style:normal;font-variant:normal;font-weight:normal;font-stretch:normal;font-family:Arial;-inkscape-font-specification:Arial"
           y="441.23941"
           x="897.33807"
           id="tspan10466"
           sodipodi:role="line">0.20</tspan></text>
      <text
         xml:space="preserve"
         style="font-style:normal;font-weight:normal;font-size:7.5px;line-height:125%;font-family:sans-serif;letter-spacing:0px;word-spacing:0px;fill:#000000;fill-opacity:1;stroke:none;stroke-width:1px;stroke-linecap:butt;stroke-linejoin:miter;stroke-opacity:1"
         x="897.33807"
         y="455.23941"
         id="text10468"
         sodipodi:linespacing="125%"><tspan
           sodipodi:role="line"
           id="tspan10470"
           x="897.33807"
           y="455.23941"
           style="font-style:normal;font-variant:normal;font-weight:normal;font-stretch:normal;font-family:Arial;-inkscape-font-specification:Arial">0.003</tspan></text>
      <text
         sodipodi:linespacing="125%"
         id="text10472"
         y="469.23941"
         x="897.33807"
         style="font-style:normal;font-weight:normal;font-size:7.5px;line-height:125%;font-family:sans-serif;letter-spacing:0px;word-spacing:0px;fill:#000000;fill-opacity:1;stroke:none;stroke-width:1px;stroke-linecap:butt;stroke-linejoin:miter;stroke-opacity:1"
         xml:space="preserve"><tspan
           style="font-style:normal;font-variant:normal;font-weight:normal;font-stretch:normal;font-family:Arial;-inkscape-font-specification:Arial"
           y="469.23941"
           x="897.33807"
           id="tspan10474"
           sodipodi:role="line">0.00006</tspan></text>
      <g
         transform="translate(0,-2.1924533)"
         id="g10492">
        <text
           xml:space="preserve"
           style="font-style:normal;font-weight:normal;font-size:7.5px;line-height:125%;font-family:sans-serif;text-align:center;letter-spacing:0px;word-spacing:0px;text-anchor:middle;fill:#000000;fill-opacity:1;stroke:none;stroke-width:1px;stroke-linecap:butt;stroke-linejoin:miter;stroke-opacity:1"
           x="905.31885"
           y="497.91864"
           id="text10480"
           sodipodi:linespacing="125%"><tspan
             sodipodi:role="line"
             id="tspan10482"
             x="905.31885"
             y="497.91864"
             style="font-style:normal;font-variant:normal;font-weight:normal;font-stretch:normal;font-family:Arial;-inkscape-font-specification:Arial;text-align:center;text-anchor:middle">Cases</tspan></text>
        <text
           sodipodi:linespacing="125%"
           id="text10484"
           y="505.45825"
           x="905.31885"
           style="font-style:normal;font-weight:normal;font-size:7.5px;line-height:125%;font-family:sans-serif;text-align:center;letter-spacing:0px;word-spacing:0px;text-anchor:middle;fill:#000000;fill-opacity:1;stroke:none;stroke-width:1px;stroke-linecap:butt;stroke-linejoin:miter;stroke-opacity:1"
           xml:space="preserve"><tspan
             style="font-style:normal;font-variant:normal;font-weight:normal;font-stretch:normal;font-family:Arial;-inkscape-font-specification:Arial;text-align:center;text-anchor:middle"
             y="505.45825"
             x="905.31885"
             id="tspan10486"
             sodipodi:role="line">per sq mile</tspan></text>
      </g>
      <text
         sodipodi:linespacing="125%"
         id="text10488"
         y="485.91867"
         x="905.31885"
         style="font-style:normal;font-weight:normal;font-size:7.5px;line-height:125%;font-family:sans-serif;text-align:center;letter-spacing:0px;word-spacing:0px;text-anchor:middle;fill:#000000;fill-opacity:1;stroke:none;stroke-width:1px;stroke-linecap:butt;stroke-linejoin:miter;stroke-opacity:1"
         xml:space="preserve"><tspan
           style="font-style:normal;font-variant:normal;font-weight:bold;font-stretch:normal;font-family:Arial;-inkscape-font-specification:'Arial Bold';text-align:center;text-anchor:middle"
           y="485.91867"
           x="905.31885"
           id="tspan10490"
           sodipodi:role="line">COVID-19</tspan></text>
    </g>
    <text
       xml:space="preserve"
       style="font-style:normal;font-weight:normal;font-size:7.5px;line-height:125%;font-family:sans-serif;text-align:center;letter-spacing:0px;word-spacing:0px;text-anchor:middle;fill:#000000;fill-opacity:1;stroke:none;stroke-width:1px;stroke-linecap:butt;stroke-linejoin:miter;stroke-opacity:1"
       x="157.84924"
       y="618.23657"
       id="text10498"
       sodipodi:linespacing="125%"><tspan
         sodipodi:role="line"
         id="tspan10500"
         x="157.84924"
         y="618.23657"
         style="font-style:normal;font-variant:normal;font-weight:normal;font-stretch:normal;font-family:Arial;-inkscape-font-specification:Arial;text-align:center;text-anchor:middle">Data from The New York Times, based on reports from state and local health agencies.</tspan></text>
    <g
       id="g10510"
       transform="translate(-212,-32)">
      <text
         xml:space="preserve"
         style="font-style:normal;font-weight:normal;font-size:7.5px;line-height:125%;font-family:sans-serif;text-align:center;letter-spacing:0px;word-spacing:0px;text-anchor:middle;fill:#000000;fill-opacity:1;stroke:none;stroke-width:1px;stroke-linecap:butt;stroke-linejoin:miter;stroke-opacity:1"
         x="661.61304"
         y="558.64032"
         id="text10502"
         sodipodi:linespacing="125%"><tspan
           sodipodi:role="line"
           id="tspan10504"
           x="661.61304"
           y="558.64032"
           style="font-style:normal;font-variant:normal;font-weight:bold;font-stretch:normal;font-size:15px;font-family:Arial;-inkscape-font-specification:'Arial Bold';text-align:center;text-anchor:middle">Cases Reported by County</tspan></text>
      <text
         sodipodi:linespacing="125%"
         id="text10506"
         y="574.64032"
         x="661.57031"
         style="font-style:normal;font-weight:normal;font-size:7.5px;line-height:125%;font-family:sans-serif;text-align:center;letter-spacing:0px;word-spacing:0px;text-anchor:middle;fill:#000000;fill-opacity:1;stroke:none;stroke-width:1px;stroke-linecap:butt;stroke-linejoin:miter;stroke-opacity:1"
         xml:space="preserve"><tspan
           style="font-style:normal;font-variant:normal;font-weight:normal;font-stretch:normal;font-size:12.5px;font-family:Arial;-inkscape-font-specification:Arial;text-align:center;text-anchor:middle"
           y="574.64032"
           x="661.57031"
           id="tspan10508"
           sodipodi:role="line">Colored relative to most-impacted region in US</tspan></text>
      <text
         xml:space="preserve"
         style="font-style:normal;font-weight:normal;font-size:7.5px;line-height:125%;font-family:sans-serif;text-align:center;letter-spacing:0px;word-spacing:0px;text-anchor:middle;fill:#000000;fill-opacity:1;stroke:none;stroke-width:1px;stroke-linecap:butt;stroke-linejoin:miter;stroke-opacity:1"
         x="661.57031"
         y="592.64032"
         id="text10536"
         sodipodi:linespacing="125%"><tspan
           sodipodi:role="line"
           id="tspan10538"
           x="661.57031"
           y="592.64032"
           style="font-style:normal;font-variant:normal;font-weight:bold;font-stretch:normal;font-size:12.5px;font-family:Arial;-inkscape-font-specification:'Arial Bold';text-align:center;text-anchor:middle">19 May 2020</tspan></text>
    </g>
    <text
       sodipodi:linespacing="125%"
       id="text10516"
       y="618.23657"
       x="760.18402"
       style="font-style:normal;font-weight:normal;font-size:7.5px;line-height:125%;font-family:sans-serif;text-align:end;letter-spacing:0px;word-spacing:0px;text-anchor:end;fill:#000000;fill-opacity:1;stroke:none;stroke-width:1px;stroke-linecap:butt;stroke-linejoin:miter;stroke-opacity:1"
       xml:space="preserve"><tspan
         style="font-style:normal;font-variant:normal;font-weight:normal;font-stretch:normal;font-family:Arial;-inkscape-font-specification:Arial;text-align:end;text-anchor:end"
         y="618.23657"
         x="760.18402"
         id="tspan10518"
         sodipodi:role="line">garykac.github.io/covid19/state/CT</tspan></text>
  </g>
  <g
     inkscape:groupmode="layer"
     id="layer2"
     inkscape:label="States"
     style="display:inline;fill:#fff;stroke:#000;stroke-width:.17829;"
     transform="translate(0,8.0273438e-6)">
    <g
       id="g25715"
       transform="matrix(21.253111,4.4884033,-4.4884033,21.253111,-18299.513,-7683.9814)">
      <path
         id="c09003"
         d="m 910.38,171.77698 3.1779,-0.74731 0.22757,0.87968 0.82688,-0.25166 0.049,-0.89993 3.9788,-0.93278 0.77198,1.888 -0.50103,0.13505 0.48085,1.91 0.3197,-0.0698 0.14846,1.1444 0.48574,-0.2036 1.3114,2.9161 0.35685,0.16748 0.56266,0.75038 0.0571,0.127 0.0963,0.531 -0.82725,0.643 -1.0038,-1.253 -1.995,0.66 -1.3568,0.642 -0.36192,1.253 -2.9268,1.0966 -0.5598,-1.7687 -0.68358,0.26216 -1.4388,-3.43 1.0786,-0.459 0.0945,-4.002 -2.3142,0.731 -0.0553,-1.719"
         style="stroke:#000" />
      <path
         id="c09005"
         d="m 909.64,171.94698 0.73989,-0.168 0.0553,1.719 2.3142,-0.731 -0.0945,4.002 -1.0786,0.459 1.4388,3.43 -1.7757,2.218 -0.65852,0.34006 0.3381,0.96295 -2.7497,0.86699 -0.0553,0.306 0.0374,0.191 0.1462,0.146 0.21751,0.136 -0.0321,0.05 -0.24069,0 -0.77515,-0.246 -0.35728,-0.42266 -0.73867,0.5944 -0.39671,-0.63874 -0.14976,-0.264 -0.3227,-0.531 -0.90035,-1.89 -0.14441,-0.168 -0.46712,-0.1 -1.5743,-8.743 7.2242,-1.528"
         style="stroke:#000" />
      <path
         id="c09001"
         d="m 904.53,185.39698 -0.54556,-3.182 0.46712,0.1 0.14441,0.168 0.90035,1.89 0.3227,0.531 0.14976,0.264 0.39671,0.63874 0.73867,-0.5944 0.35728,0.42266 0.77515,0.246 0.24069,0 0.0321,-0.05 0.62579,0.233 1.3514,0.442 2.9881,2.115 -0.0571,1.116 -0.2086,0.481 -0.041,0.186 0.0499,1.094 0.0481,0.109 0.27456,0.171 -1.1589,0.314 -2.9096,2.2 -3.9918,3.389 -0.0981,0.188 -0.0499,0.247 -1.7971,-2.312 1.2516,-1.278 2.264,-2.3339 -1.6114,-1.4831 -0.2817,-1.623 -0.62757,-3.68"
         style="stroke:#000" />
      <path
         id="c09009"
         d="m 917.18,181.06698 0.58656,1.792 0.2953,1.5488 0.92597,-0.28684 0.62043,-0.307 0.24069,0.154 0.74702,0.843 2.0075,2.492 -0.88431,-0.05 -0.5616,0.136 -2.3142,0.7 -1.4459,0.608 -0.78803,0.115 -0.37084,-0.459 -0.1355,0.06 -1.9612,2.283 -0.26564,0.371 -0.31379,0.594 -0.0214,0.09 0,0.02 -0.27456,-0.171 -0.0481,-0.109 -0.0499,-1.094 0.041,-0.186 0.2086,-0.481 0.0571,-1.116 -2.9881,-2.115 -1.3514,-0.442 -0.62579,-0.233 -0.21751,-0.136 -0.1462,-0.146 -0.0374,-0.191 0.0553,-0.306 2.7497,-0.86699 -0.3381,-0.96295 0.65852,-0.34006 1.7757,-2.218 0.68358,-0.26216 0.5598,1.7687 2.9268,-1.0966"
         style="stroke:#000" />
      <path
         id="c09007"
         d="m 921.9,179.76698 0.9834,0.86094 1.686,-0.52982 0.78267,2.0366 -1.8698,0.78925 2.2991,3.071 -3.1753,1.31 -2.0075,-2.492 -0.74702,-0.843 -0.24069,-0.154 -0.62043,0.307 -0.92597,0.28662 -0.2956,-1.5486 -0.58626,-1.792 0.36192,-1.253 1.3568,-0.642 1.995,-0.66 1.0038,1.253"
         style="stroke:#000" />
      <path
         id="c09011"
         d="m 933.05,176.58698 0.96081,3.9425 -0.0783,0.0701 -0.26579,-0.003 -0.274,0.35605 0.0488,0.31509 0.20975,0.25828 0.0393,0.44768 0.20028,0.26774 0.0406,0.21847 -0.23405,0.3037 -0.11093,0.0764 -0.10146,0.19952 -0.5057,-0.20947 -0.99405,0.29866 -0.629,0.50681 -0.3464,0.27884 -1.286,0.14348 -0.33613,0.62381 -0.44615,0.1009 -0.46959,-0.0718 -0.29481,-0.22121 -0.3019,0.11786 0.0195,0.63166 -0.871,0.4035 -0.90748,0.355 -0.16937,0.02 -0.16759,-0.03 -2.2991,-3.071 1.8698,-0.78925 -0.78267,-2.0366 -1.686,0.52982 -0.9834,-0.86094 0.82725,-0.643 1.2615,-0.60147 0.93146,-2.6365 1.0929,0.626 0.58656,0.291 3.5354,-0.355 1.503,-0.617 1.1589,-0.202 0.25495,0.965 m -2.1582,8.8071 0.18785,-0.60504 0.18662,-0.0129 0.10743,0.0977 0.12855,-0.36953 0.58387,-0.31957 0.2143,-0.16388 0.2563,-0.10113 -0.0594,0.29583 -0.32804,0.24894 -0.45893,0.33465 -0.21661,0.4029 -0.23153,-0.002 z"
         style="stroke:#000" />
      <path
         id="c09013"
         d="m 925.38,168.24698 0.4475,1.549 -1.5868,0.401 -0.34587,0.112 0.68997,2.766 0.78803,-0.18352 0.68997,1.7505 -0.62433,-0.002 0.13582,0.5795 -1.0033,0.2528 0.35075,0.4072 -0.93146,2.6365 -1.2615,0.60147 -0.0963,-0.531 -0.0571,-0.127 -0.56266,-0.75038 -0.35685,-0.16748 -1.3114,-2.9161 -0.48574,0.2036 -0.14846,-1.1444 -0.3197,0.0698 -0.48085,-1.91 0.50103,-0.13505 -0.77198,-1.888 6.1794,-1.464 0.56161,-0.11"
         style="stroke:#000" />
      <path
         id="c09015"
         d="m 930.49,167.41698 1.8096,6.307 0.4992,1.897 -1.1589,0.202 -1.503,0.617 -3.5354,0.355 -0.58656,-0.291 -1.0929,-0.626 -0.35075,-0.4072 1.0033,-0.2528 -0.13582,-0.5795 0.62433,0.002 -0.68997,-1.7505 -0.78803,0.18352 -0.68997,-2.766 0.34587,-0.112 1.5868,-0.401 -0.4475,-1.549 0.7078,-0.147 4.2896,-1.019 0.11232,0.337"
         style="stroke:#000" />
    </g>
  </g>
</svg>
