<?xml version="1.0" encoding="UTF-8" standalone="no"?>
<svg
   xmlns:dc="http://purl.org/dc/elements/1.1/"
   xmlns:cc="http://creativecommons.org/ns#"
   xmlns:rdf="http://www.w3.org/1999/02/22-rdf-syntax-ns#"
   xmlns:svg="http://www.w3.org/2000/svg"
   xmlns="http://www.w3.org/2000/svg"
   xmlns:sodipodi="http://sodipodi.sourceforge.net/DTD/sodipodi-0.dtd"
   xmlns:inkscape="http://www.inkscape.org/namespaces/inkscape"
   width="989.97998"
   height="500"
   version="1.0"
   id="svg2"
   inkscape:version="0.91 r13725"
   sodipodi:docname="OK.svg">
  <defs
     id="defs9439" />
  <sodipodi:namedview
     pagecolor="#ffffff"
     bordercolor="#666666"
     borderopacity="1"
     objecttolerance="10"
     gridtolerance="10"
     guidetolerance="10"
     inkscape:pageopacity="0"
     inkscape:pageshadow="2"
     inkscape:window-width="2743"
     inkscape:window-height="1379"
     id="namedview9437"
     showgrid="false"
     showguides="true"
     inkscape:zoom="1.8370863"
     inkscape:cx="315.98549"
     inkscape:cy="277.1076"
     inkscape:window-x="0"
     inkscape:window-y="0"
     inkscape:window-maximized="0"
     inkscape:current-layer="layer2"
     inkscape:snap-global="false" />
  <metadata
     id="metadata4">
    <rdf:RDF>
      <cc:Work>
        <dc:format>image/svg+xml</dc:format>
        <dc:type
           rdf:resource="http://purl.org/dc/dcmitype/StillImage" />
        <dc:title />
        <cc:license
           rdf:resource="http://creativecommons.org/publicdomain/zero/1.0/" />
        <dc:date>2019-10-06</dc:date>
        <dc:creator>
          <cc:Agent>
            <dc:title>U.S. Census Bureau, Abe.suleiman, Lokal_Profil</dc:title>
          </cc:Agent>
        </dc:creator>
        <dc:source>https://commons.wikimedia.org/wiki/File:Usa_counties_large.svg</dc:source>
      </cc:Work>
      <cc:License
         rdf:about="http://creativecommons.org/publicdomain/zero/1.0/">
        <cc:permits
           rdf:resource="http://creativecommons.org/ns#Reproduction" />
        <cc:permits
           rdf:resource="http://creativecommons.org/ns#Distribution" />
        <cc:permits
           rdf:resource="http://creativecommons.org/ns#DerivativeWorks" />
      </cc:License>
    </rdf:RDF>
  </metadata>
  <style
     id="style6">
  #counties {fill:#d0d0d0;stroke:#000;stroke-width:.17829;} 
  #borders {fill:none;stroke:#221e1f;stroke-width:.89143;} 
  #separator {fill:none;stroke:#a9a9a9;stroke-width:2.3177309;}
  #legend-1 {fill:#ff0000;}
  #legend-2 {fill:#ff6a32;}
  #legend-3 {fill:#ffb866;}
  #legend-4 {fill:#ffeb99;}
  #legend-5 {fill:#faffcc;}
  #c40001 {fill:#ffaf5f;}
  #c40003 {fill:#fff4a7;}
  #c40005 {fill:#ffcd77;}
  #c40007 {fill:#ffda84;}
  #c40009 {fill:#ffd47e;}
  #c40011 {fill:#ffd680;}
  #c40013 {fill:#ffb361;}
  #c40015 {fill:#ffba67;}
  #c40017 {fill:#ffa154;}
  #c40019 {fill:#ffb362;}
  #c40021 {fill:#ffb563;}
  #c40023 {fill:#ffba67;}
  #c40025 {fill:#fff9b0;}
  #c40027 {fill:#ff8542;}
  #c40029 {fill:#ffd17b;}
  #c40031 {fill:#ffa859;}
  #c40033 {fill:#ffd882;}
  #c40035 {fill:#ffcb76;}
  #c40037 {fill:#ffb160;}
  #c40039 {fill:#ffbf6b;}
  #c40041 {fill:#ffac5c;}
  #c40043 {fill:#ffea97;}
  #c40045 {fill:#fff2a2;}
  #c40047 {fill:#ffba67;}
  #c40049 {fill:#ffba67;}
  #c40051 {fill:#ffb361;}
  #c40053 {fill:#ffe894;}
  #c40055 {fill:#ffc26d;}
  #c40057 {fill:#ffe48f;}
  #c40059 {fill:#fff0a0;}
  #c40061 {fill:#ffd07a;}
  #c40063 {fill:#ffd27c;}
  #c40065 {fill:#ffb261;}
  #c40067 {fill:#ffd47e;}
  #c40069 {fill:#ffd07a;}
  #c40071 {fill:#ffbb68;}
  #c40073 {fill:#ffc772;}
  #c40075 {fill:#ffda84;}
  #c40077 {fill:#ffcf79;}
  #c40079 {fill:#ffc974;}
  #c40081 {fill:#ffc973;}
  #c40083 {fill:#ffbb68;}
  #c40085 {fill:#ffc26e;}
  #c40093 {fill:#ffd882;}
  #c40095 {fill:#ffbd69;}
  #c40097 {fill:#ffb160;}
  #c40087 {fill:#ffa859;}
  #c40089 {fill:#ffae5e;}
  #c40091 {fill:#ffbb68;}
  #c40099 {fill:#ffc46f;}
  #c40101 {fill:#ffaf5f;}
  #c40103 {fill:#ffc570;}
  #c40105 {fill:#ffc772;}
  #c40107 {fill:#ffd07a;}
  #c40109 {fill:#ff6f36;}
  #c40111 {fill:#ffaf5f;}
  #c40113 {fill:#ffc16d;}
  #c40115 {fill:#ffa95a;}
  #c40117 {fill:#ffbc69;}
  #c40119 {fill:#ffa155;}
  #c40121 {fill:#ffc772;}
  #c40123 {fill:#ffbc69;}
  #c40125 {fill:#ffb261;}
  #c40127 {fill:#ffd27c;}
  #c40129 {fill:#ffe794;}
  #c40131 {fill:#ffa356;}
  #c40133 {fill:#ffbc68;}
  #c40135 {fill:#ffbb68;}
  #c40137 {fill:#ffbe6a;}
  #c40139 {fill:#ffaa5b;}
  #c40141 {fill:#ffcf79;}
  #c40143 {fill:#ff6b33;}
  #c40145 {fill:#ff9f53;}
  #c40147 {fill:#ff9a50;}
  #c40149 {fill:#ffdd87;}
  #c40151 {fill:#ffde89;}
  #c40153 {fill:#ffd882;}
 </style>
  <g
     inkscape:groupmode="layer"
     id="layer1"
     inkscape:label="Legend"
     style="display:inline"
     transform="translate(0,-127.07001)">
    <g
       id="g10509"
       transform="translate(-722.88383,-18.26242)">
      <rect
         y="398.82034"
         x="876.81744"
         height="112.00786"
         width="56.966187"
         id="rect10421"
         style="fill:#ffffff;fill-opacity:1;stroke:#000000;stroke-width:1;stroke-linecap:round;stroke-linejoin:miter;stroke-miterlimit:4;stroke-dasharray:none;stroke-dashoffset:0;stroke-opacity:1" />
      <rect
         y="405.30087"
         x="882.40851"
         height="10.614635"
         width="10.614635"
         id="legend-1"
         style="stroke:#000000;stroke-width:1" />
      <rect
         style="stroke:#000000;stroke-width:1"
         id="legend-2"
         width="10.614635"
         height="10.614635"
         x="882.40851"
         y="419.30087" />
      <rect
         y="433.30087"
         x="882.40851"
         height="10.614635"
         width="10.614635"
         id="legend-3"
         style="stroke:#000000;stroke-width:1" />
      <rect
         style="stroke:#000000;stroke-width:1"
         id="legend-4"
         width="10.614635"
         height="10.614635"
         x="882.40851"
         y="447.30087" />
      <rect
         y="461.30087"
         x="882.40851"
         height="10.614635"
         width="10.614635"
         id="legend-5"
         style="stroke:#000000;stroke-width:1" />
      <text
         sodipodi:linespacing="125%"
         id="text10456"
         y="413.23941"
         x="897.33807"
         style="font-style:normal;font-weight:normal;font-size:7.5px;line-height:125%;font-family:sans-serif;letter-spacing:0px;word-spacing:0px;fill:#000000;fill-opacity:1;stroke:none;stroke-width:1px;stroke-linecap:butt;stroke-linejoin:miter;stroke-opacity:1"
         xml:space="preserve"><tspan
           style="font-style:normal;font-variant:normal;font-weight:normal;font-stretch:normal;font-family:Arial;-inkscape-font-specification:Arial"
           y="413.23941"
           x="897.33807"
           id="tspan10458"
           sodipodi:role="line">752</tspan></text>
      <text
         xml:space="preserve"
         style="font-style:normal;font-weight:normal;font-size:7.5px;line-height:125%;font-family:sans-serif;letter-spacing:0px;word-spacing:0px;fill:#000000;fill-opacity:1;stroke:none;stroke-width:1px;stroke-linecap:butt;stroke-linejoin:miter;stroke-opacity:1"
         x="897.33807"
         y="427.23941"
         id="text10460"
         sodipodi:linespacing="125%"><tspan
           sodipodi:role="line"
           id="tspan10462"
           x="897.33807"
           y="427.23941"
           style="font-style:normal;font-variant:normal;font-weight:normal;font-stretch:normal;font-family:Arial;-inkscape-font-specification:Arial">13</tspan></text>
      <text
         sodipodi:linespacing="125%"
         id="text10464"
         y="441.23941"
         x="897.33807"
         style="font-style:normal;font-weight:normal;font-size:7.5px;line-height:125%;font-family:sans-serif;letter-spacing:0px;word-spacing:0px;fill:#000000;fill-opacity:1;stroke:none;stroke-width:1px;stroke-linecap:butt;stroke-linejoin:miter;stroke-opacity:1"
         xml:space="preserve"><tspan
           style="font-style:normal;font-variant:normal;font-weight:normal;font-stretch:normal;font-family:Arial;-inkscape-font-specification:Arial"
           y="441.23941"
           x="897.33807"
           id="tspan10466"
           sodipodi:role="line">0.21</tspan></text>
      <text
         xml:space="preserve"
         style="font-style:normal;font-weight:normal;font-size:7.5px;line-height:125%;font-family:sans-serif;letter-spacing:0px;word-spacing:0px;fill:#000000;fill-opacity:1;stroke:none;stroke-width:1px;stroke-linecap:butt;stroke-linejoin:miter;stroke-opacity:1"
         x="897.33807"
         y="455.23941"
         id="text10468"
         sodipodi:linespacing="125%"><tspan
           sodipodi:role="line"
           id="tspan10470"
           x="897.33807"
           y="455.23941"
           style="font-style:normal;font-variant:normal;font-weight:normal;font-stretch:normal;font-family:Arial;-inkscape-font-specification:Arial">0.004</tspan></text>
      <text
         sodipodi:linespacing="125%"
         id="text10472"
         y="469.23941"
         x="897.33807"
         style="font-style:normal;font-weight:normal;font-size:7.5px;line-height:125%;font-family:sans-serif;letter-spacing:0px;word-spacing:0px;fill:#000000;fill-opacity:1;stroke:none;stroke-width:1px;stroke-linecap:butt;stroke-linejoin:miter;stroke-opacity:1"
         xml:space="preserve"><tspan
           style="font-style:normal;font-variant:normal;font-weight:normal;font-stretch:normal;font-family:Arial;-inkscape-font-specification:Arial"
           y="469.23941"
           x="897.33807"
           id="tspan10474"
           sodipodi:role="line">0.00006</tspan></text>
      <g
         transform="translate(0,-2.1924533)"
         id="g10492">
        <text
           xml:space="preserve"
           style="font-style:normal;font-weight:normal;font-size:7.5px;line-height:125%;font-family:sans-serif;text-align:center;letter-spacing:0px;word-spacing:0px;text-anchor:middle;fill:#000000;fill-opacity:1;stroke:none;stroke-width:1px;stroke-linecap:butt;stroke-linejoin:miter;stroke-opacity:1"
           x="905.31885"
           y="497.91864"
           id="text10480"
           sodipodi:linespacing="125%"><tspan
             sodipodi:role="line"
             id="tspan10482"
             x="905.31885"
             y="497.91864"
             style="font-style:normal;font-variant:normal;font-weight:normal;font-stretch:normal;font-family:Arial;-inkscape-font-specification:Arial;text-align:center;text-anchor:middle">Cases</tspan></text>
        <text
           sodipodi:linespacing="125%"
           id="text10484"
           y="505.45825"
           x="905.31885"
           style="font-style:normal;font-weight:normal;font-size:7.5px;line-height:125%;font-family:sans-serif;text-align:center;letter-spacing:0px;word-spacing:0px;text-anchor:middle;fill:#000000;fill-opacity:1;stroke:none;stroke-width:1px;stroke-linecap:butt;stroke-linejoin:miter;stroke-opacity:1"
           xml:space="preserve"><tspan
             style="font-style:normal;font-variant:normal;font-weight:normal;font-stretch:normal;font-family:Arial;-inkscape-font-specification:Arial;text-align:center;text-anchor:middle"
             y="505.45825"
             x="905.31885"
             id="tspan10486"
             sodipodi:role="line">per sq mile</tspan></text>
      </g>
      <text
         sodipodi:linespacing="125%"
         id="text10488"
         y="485.91867"
         x="905.31885"
         style="font-style:normal;font-weight:normal;font-size:7.5px;line-height:125%;font-family:sans-serif;text-align:center;letter-spacing:0px;word-spacing:0px;text-anchor:middle;fill:#000000;fill-opacity:1;stroke:none;stroke-width:1px;stroke-linecap:butt;stroke-linejoin:miter;stroke-opacity:1"
         xml:space="preserve"><tspan
           style="font-style:normal;font-variant:normal;font-weight:bold;font-stretch:normal;font-family:Arial;-inkscape-font-specification:'Arial Bold';text-align:center;text-anchor:middle"
           y="485.91867"
           x="905.31885"
           id="tspan10490"
           sodipodi:role="line">COVID-19</tspan></text>
    </g>
    <text
       xml:space="preserve"
       style="font-style:normal;font-weight:normal;font-size:7.5px;line-height:125%;font-family:sans-serif;text-align:center;letter-spacing:0px;word-spacing:0px;text-anchor:middle;fill:#000000;fill-opacity:1;stroke:none;stroke-width:1px;stroke-linecap:butt;stroke-linejoin:miter;stroke-opacity:1"
       x="157.84924"
       y="618.23657"
       id="text10498"
       sodipodi:linespacing="125%"><tspan
         sodipodi:role="line"
         id="tspan10500"
         x="157.84924"
         y="618.23657"
         style="font-style:normal;font-variant:normal;font-weight:normal;font-stretch:normal;font-family:Arial;-inkscape-font-specification:Arial;text-align:center;text-anchor:middle">Data from The New York Times, based on reports from state and local health agencies.</tspan></text>
    <g
       id="g10510"
       transform="translate(-479.22128,-279.02591)">
      <text
         xml:space="preserve"
         style="font-style:normal;font-weight:normal;font-size:7.5px;line-height:125%;font-family:sans-serif;text-align:center;letter-spacing:0px;word-spacing:0px;text-anchor:middle;fill:#000000;fill-opacity:1;stroke:none;stroke-width:1px;stroke-linecap:butt;stroke-linejoin:miter;stroke-opacity:1"
         x="661.61304"
         y="558.64032"
         id="text10502"
         sodipodi:linespacing="125%"><tspan
           sodipodi:role="line"
           id="tspan10504"
           x="661.61304"
           y="558.64032"
           style="font-style:normal;font-variant:normal;font-weight:bold;font-stretch:normal;font-size:15px;font-family:Arial;-inkscape-font-specification:'Arial Bold';text-align:center;text-anchor:middle">Cases Reported by County</tspan></text>
      <text
         sodipodi:linespacing="125%"
         id="text10506"
         y="574.64032"
         x="661.57031"
         style="font-style:normal;font-weight:normal;font-size:7.5px;line-height:125%;font-family:sans-serif;text-align:center;letter-spacing:0px;word-spacing:0px;text-anchor:middle;fill:#000000;fill-opacity:1;stroke:none;stroke-width:1px;stroke-linecap:butt;stroke-linejoin:miter;stroke-opacity:1"
         xml:space="preserve"><tspan
           style="font-style:normal;font-variant:normal;font-weight:normal;font-stretch:normal;font-size:12.5px;font-family:Arial;-inkscape-font-specification:Arial;text-align:center;text-anchor:middle"
           y="574.64032"
           x="661.57031"
           id="tspan10508"
           sodipodi:role="line">Colored relative to most-impacted region in US</tspan></text>
      <text
         xml:space="preserve"
         style="font-style:normal;font-weight:normal;font-size:7.5px;line-height:125%;font-family:sans-serif;text-align:center;letter-spacing:0px;word-spacing:0px;text-anchor:middle;fill:#000000;fill-opacity:1;stroke:none;stroke-width:1px;stroke-linecap:butt;stroke-linejoin:miter;stroke-opacity:1"
         x="661.57031"
         y="592.64032"
         id="text10536"
         sodipodi:linespacing="125%"><tspan
           sodipodi:role="line"
           id="tspan10538"
           x="661.57031"
           y="592.64032"
           style="font-style:normal;font-variant:normal;font-weight:bold;font-stretch:normal;font-size:12.5px;font-family:Arial;-inkscape-font-specification:'Arial Bold';text-align:center;text-anchor:middle">23 Jul 2020</tspan></text>
    </g>
    <text
       sodipodi:linespacing="125%"
       id="text10516"
       y="618.23657"
       x="978.18402"
       style="font-style:normal;font-weight:normal;font-size:7.5px;line-height:125%;font-family:sans-serif;text-align:end;letter-spacing:0px;word-spacing:0px;text-anchor:end;fill:#000000;fill-opacity:1;stroke:none;stroke-width:1px;stroke-linecap:butt;stroke-linejoin:miter;stroke-opacity:1"
       xml:space="preserve"><tspan
         style="font-style:normal;font-variant:normal;font-weight:normal;font-stretch:normal;font-family:Arial;-inkscape-font-specification:Arial;text-align:end;text-anchor:end"
         y="618.23657"
         x="978.18402"
         id="tspan10518"
         sodipodi:role="line">garykac.github.io/covid19/state/OK</tspan></text>
  </g>
  <g
     inkscape:groupmode="layer"
     id="layer2"
     inkscape:label="States"
     style="display:inline;fill:#fff;stroke:#000;stroke-width:.17829;"
     transform="translate(0,-127.07001)">
    <g
       id="g25331"
       transform="matrix(5.8943284,-0.15904104,0.15904104,5.8943284,-2352.5661,-1748.913)">
      <path
         id="c40139"
         d="m 422.03,332.72698 8.8965,0.443 2.209,0.112 -0.18542,3.455 -0.15155,0 -0.4261,8.062 -2.4033,-0.119 -9.8682,-0.563 -7.4791,-0.473 0.8023,-11.396 8.6059,0.474"
         style="stroke:#000000"
         inkscape:connector-curvature="0" />
      <path
         id="c40025"
         d="m 395.72,330.87698 2.307,0.178 9.451,0.779 5.6963,0.401 0.25674,0.02 -0.8023,11.396 -2.3873,-0.155 -15.372,-1.068 0.85043,-11.547"
         style="stroke:#000000"
         inkscape:connector-curvature="0" />
      <path
         id="c40115"
         d="m 548.46,335.44698 0.0731,5.359 0.0392,2.291 -6.6773,0.0126 0.055,-6.2334 -0.57159,-0.002 -0.0213,-1.3649 7.103,-0.06"
         style="stroke:#000000"
         inkscape:connector-curvature="0" />
      <path
         id="c40035"
         d="m 540.15,335.50698 1.1981,0 0.0214,1.3649 0.57159,0.002 -0.055,6.2334 0.0181,1.9348 -0.36204,0.006 -0.0407,1.805 -5.9156,0.04 0.0486,-2.0077 -1.9598,7e-4 -0.0238,-7.7682 0.43038,0.007 -0.0287,-1.5532 6.0974,-0.06"
         style="stroke:#000000"
         inkscape:connector-curvature="0" />
      <path
         id="c40097"
         d="m 541.51,346.84698 -0.0178,8.06 -1.9754,0.02 0.025,2.017 -1.6563,0 -4.2914,0.02 -0.016,-4.029 0.0499,-6.041 1.9665,-0.02 5.9156,-0.04"
         style="stroke:#000000"
         inkscape:connector-curvature="0" />
      <path
         id="c40041"
         d="m 548.57,343.09698 0.0553,3.903 1.1339,7.803 -4.3217,0.07 -3.9473,0.04 0.0178,-8.06 0.0407,-1.805 0.36204,-0.006 -0.0181,-1.9348 6.6773,-0.0126"
         style="stroke:#000000"
         inkscape:connector-curvature="0" />
      <path
         id="c40001"
         d="m 545.44,354.86698 4.3217,-0.07 0.21751,1.377 1.6402,10.709 -6.2115,0.09 -0.082,-6.078 0.15511,-2.481 -0.041,-3.552"
         style="stroke:#000000"
         inkscape:connector-curvature="0" />
      <path
         id="c40021"
         d="m 541.49,354.90698 3.9473,-0.04 0.041,3.552 -0.15511,2.481 0.082,6.078 -5.9476,0.06 -0.1395,-3.9651 -2.4546,-0.0449 -0.041,-0.06 -0.29774,-2.122 0.0731,-1.31 0.11233,-0.216 0.36905,-0.33 0.25673,-0.01 0.0731,-0.08 0.48138,-1.13 -0.007,-0.806 1.6563,0 -0.025,-2.017 1.9754,-0.02"
         style="stroke:#000000"
         inkscape:connector-curvature="0" />
      <path
         id="c40135"
         d="m 551.61,366.88698 0.84152,5.554 -0.007,0.403 -1.2076,0.96187 -0.002,0.4939 0.39422,0.31543 -0.20069,0.37492 -0.37916,0.13696 -0.26734,-0.44368 -3.0039,-0.007 -0.01,-0.52299 -0.85222,-0.562 -0.37796,-0.105 -0.36014,0.04 -0.10341,0.05 -0.7078,0.697 -1.7757,-1.712 -0.61152,0 -0.9164,-0.24 -0.27456,-0.1 -0.28704,-0.264 -0.5723,-0.779 -1.4156,-1.3567 -0.0624,-2.7973 5.9476,-0.06 6.2115,-0.09"
         style="stroke:#000000"
         inkscape:connector-curvature="0" />
      <path
         id="c40061"
         d="m 540.93,371.18698 0.5723,0.779 0.28704,0.264 0.27456,0.1 0.9164,0.24 0.61152,0 1.7757,1.712 0.0143,2.305 -1.3978,0.508 -0.71671,0 0.041,3.343 -7.8803,0.07 -0.0178,-2.362 -1.9683,0 -0.0178,-0.981 0.0678,-2.153 0.72167,-0.63082 0.74346,0.0188 0.51743,0.66207 0.004,0.34332 1.3329,0.0311 0.0115,0.57009 0.82867,-0.004 0.28107,-0.46603 0.27963,0.25383 0.62737,-0.7894 -0.23768,-0.27135 0.59191,-1.6628 1.4334,-1.687 0.30309,-0.2"
         style="stroke:#000000"
         inkscape:connector-curvature="0" />
      <path
         id="c40079"
         d="m 552.45,372.84698 -0.11232,10.341 -0.0481,4.747 -0.0392,5.121 -8.9785,0.135 -0.0952,-3.9502 -2.2421,-0.0428 -0.0392,-4.035 1.1229,-0.0417 0.0182,-1.6373 1.3086,-0.361 -0.0731,-6.027 0.71671,0 1.3978,-0.509 -0.0143,-2.305 0.7078,-0.697 0.10341,-0.05 0.36014,-0.04 0.37796,0.105 0.85222,0.562 0.01,0.52299 3.0039,0.007 0.26734,0.44368 0.37916,-0.13696 0.20069,-0.37492 -0.39422,-0.31543 0.002,-0.4939 1.2076,-0.96187"
         style="stroke:#000000"
         inkscape:connector-curvature="0" />
      <path
         id="c40077"
         d="m 543.31,380.43698 0.0321,2.685 -1.3086,0.361 -0.0182,1.6373 -1.1229,0.0417 0.0392,4.035 -8.5489,0.06 0,-2.083 0.0874,-5.971 2.5026,-0.02 0.006,-0.66469 0.45076,-0.002 7.8803,-0.07"
         style="stroke:#000000"
         inkscape:connector-curvature="0" />
      <path
         id="c40121"
         d="m 533.5,375.01698 -0.0678,2.154 0.0178,0.98 1.9683,0 0.0178,2.363 -0.45076,0.002 -0.006,0.66419 -2.5026,0.02 -0.0874,5.97 0,2.083 0.004,2.0442 -2.9525,-0.0122 -3.9615,0.02 0,-2.018 -3.9455,0 0,-2.007 0.0731,-6.535 0.5206,-0.964 0.90748,-1.237 0.16224,-0.1 0.36905,-0.06 0.67571,0.03 1.5573,-0.78293 2.1475,0.004 0.69176,-0.316 3.6139,-2.007 1.248,-0.298"
         style="stroke:#000000"
         inkscape:connector-curvature="0" />
      <path
         id="c40029"
         d="m 521.53,387.27698 0,6.043 -1.4291,-0.007 -0.0153,0.69954 0.3917,0.20685 0.049,1.128 -4.951,-0.02 -2.0059,-0.0676 0.0126,-1.9484 0.0571,-4.035 1.9843,0 0.009,-2.015 5.8977,0.01"
         style="stroke:#000000"
         inkscape:connector-curvature="0" />
      <path
         id="c40005"
         d="m 521.53,389.27698 3.9455,0 0,2.018 3.9615,-0.02 0.009,2.009 -2.0182,0.159 0.009,7.941 -4.0186,0 -7.866,-0.02 0.0232,-6.044 4.951,0.02 -0.049,-1.128 -0.3917,-0.20685 0.0153,-0.69954 1.4291,0.007 0,-4.035"
         style="stroke:#000000"
         inkscape:connector-curvature="0" />
      <path
         id="c40127"
         d="m 532.38,389.24698 8.5489,-0.06 2.2421,0.0428 0.0952,3.9502 -2.0539,0.01 0.0642,6.092 -1.1749,0 -0.80408,0.435 0.0239,1.5837 -0.10407,-0.003 -11.787,0.07 -0.009,-7.941 2.0182,-0.158 -0.009,-2.01 2.9525,0.0122 -0.004,-2.0442"
         style="stroke:#000000"
         inkscape:connector-curvature="0" />
      <path
         id="c40089"
         d="m 543.27,393.18698 8.9785,-0.135 -0.0571,7.343 -0.0874,12.762 -4.9742,-1.431 -2.3623,-0.965 -3.2626,-2.612 -2.2268,-1.904 -0.0571,-4.926 0.10407,0.003 -0.0239,-1.5837 0.80408,-0.436 1.1749,0 -0.0642,-6.092 2.0539,-0.01"
         style="stroke:#000000"
         inkscape:connector-curvature="0" />
      <path
         id="c40023"
         d="m 539.22,401.31698 0.0571,4.926 -1.2052,-0.403 -0.13549,0 -0.0642,0.03 -0.0267,0 -0.40828,0.619 -0.009,0.03 0,0.04 -0.007,0.02 0.007,0.02 0.0731,0.154 0,0.03 0.0321,0.2 -0.0321,0.232 -0.10341,0.233 -0.10697,0.104 -0.50634,0.33 -0.14976,0.02 -0.28169,0.03 -0.55448,0.07 -0.009,0 -1.2872,0.06 -0.71315,-0.06 -1.8809,-0.25 -0.0713,-0.06 -0.0749,-0.128 0,-0.02 -0.005,-0.118 0.0571,-0.162 0.005,-0.153 -0.20147,-0.514 -0.14441,-0.06 -0.61687,-0.03 -1.3906,0.722 -1.5921,0.829 -0.007,0 -1.5832,-0.16 -1.478,-1.165 -0.32983,-0.417 -0.041,-0.13 -0.007,-4.097 -1.0127,-0.724 4.0186,0 11.787,-0.07"
         style="stroke:#000000"
         inkscape:connector-curvature="0" />
      <path
         id="c40013"
         d="m 523.42,401.39698 1.0127,0.724 0.007,4.097 0.041,0.13 0.32983,0.417 1.478,1.164 1.5832,0.161 -1.6313,0.611 -0.92353,-0.169 -1.1,-0.217 -0.25851,0.03 -0.41006,0.03 -2.1377,0.178 -0.96454,0.223 -0.16046,0.563 -0.11945,0.555 -0.009,0.06 -0.016,0.06 -0.0553,0.176 -0.0481,0.154 -0.009,0.02 -0.0232,0.03 -0.17828,0.185 -0.0232,0.03 -0.34588,0.148 -0.39401,0.105 -2.8366,0.701 -0.18363,-0.252 -0.82725,-1.125 -0.24961,-0.08 -0.22464,-0.03 -0.97344,0.186 -0.025,0 -0.17651,-0.122 -1.9522,-1.31 -0.0161,-0.06 -0.016,-0.111 -0.016,-0.283 0.0642,-0.369 0.37951,-1.7868 -0.34851,-0.99412 0.75161,-1.6736 -0.23526,-1.2044 2.1567,0.0671 0.0105,-1.0198 1.2078,-0.0173 7.866,0.02"
         style="stroke:#000000"
         inkscape:connector-curvature="0" />
      <path
         id="c40095"
         d="m 505.6,400.93698 4.9243,0.05 0.99662,0.246 0.72385,0.854 0,0.144 -0.0642,0.104 0.23526,1.2044 -0.75161,1.6736 0.34851,0.99412 -0.37951,1.7868 -1.9041,0.859 -0.0161,0 -0.92352,0.155 -1.7936,-0.549 -0.19255,-0.134 -0.312,-0.349 -0.96454,-1.983 0.002,-1.3535 -0.66925,-0.0119 0.033,-1.3496 0.0465,-2.3353 0.6613,-0.0127"
         style="stroke:#000000"
         inkscape:connector-curvature="0" />
      <path
         id="c40069"
         d="m 507.68,393.24698 5.9049,0.06 -0.0126,1.9484 2.0059,0.0676 -0.0232,6.044 -1.2078,0.0173 -0.0105,1.0198 -2.1567,-0.0671 0.0642,-0.104 0,-0.144 -0.72385,-0.854 -0.99662,-0.246 -4.9243,-0.05 0.0392,-3.696 0.98771,0 0.0499,-4.001 1.0038,0"
         style="stroke:#000000"
         inkscape:connector-curvature="0" />
      <path
         id="c40123"
         d="m 514.06,383.93698 1.5207,-0.009 0.0464,3.3277 -0.009,2.015 -1.9843,0 -0.0571,4.034 -5.9049,-0.06 0.0143,-2.016 -1.9754,-0.02 0.009,-1.004 0.0481,-5.038 0.0642,-2.539 2.8847,1.508 1.1508,0.68824 1.5208,-0.79174 1.3238,0.31049 0.65109,0.68048 0.69673,-1.0945"
         style="stroke:#000000"
         inkscape:connector-curvature="0" />
      <path
         id="c40049"
         d="m 505.77,385.17698 -0.0481,5.038 -3.9544,-0.05 -0.97166,0.312 -0.0481,0.06 -0.0321,0.234 0.14263,0.321 0.29774,0.242 0.2496,0.722 0.22464,0.997 -0.7078,0.119 -3.1325,-0.05 -3.9615,-0.06 0.0772,-4.0442 -2.0063,-0.0208 0.0802,-4.019 13.79,0.202"
         style="stroke:#000000"
         inkscape:connector-curvature="0" />
      <path
         id="c40099"
         d="m 497.79,393.12698 3.1325,0.05 0.7078,-0.119 -0.22464,-0.997 -0.2496,-0.722 -0.29774,-0.242 -0.14263,-0.321 0.0321,-0.234 0.0481,-0.06 0.97166,-0.312 3.9544,0.05 -0.009,1.004 1.9754,0.02 -0.0143,2.016 -1.0038,0 -0.0499,4.001 -0.98771,0 -1.8007,-0.02 -0.19968,-0.119 -0.0571,-0.113 0,-0.05 0.21751,-0.153 -0.041,-0.506 -0.0553,-0.06 -5.9548,-0.09 0.0481,-3.022"
         style="stroke:#000000"
         inkscape:connector-curvature="0" />
      <path
         id="c40085"
         d="m 493.69,403.13698 11.195,0.153 -0.033,1.3496 0.66925,0.0119 -0.002,1.3535 -0.18541,0.104 -2.8597,4.96 -0.0891,0.119 -0.19255,0.153 -0.27278,0.09 -0.30487,-0.04 -0.26565,-0.09 -1.1319,-1.8761 0.71938,-1.9686 -1.3381,-0.65128 -2.6803,2.3801 -1.1067,-0.30417 -0.16759,-0.112 -0.11232,-0.136 -0.0161,-0.04 -0.0499,-0.119 -0.37618,-1.719 -1.4637,0.394 0.0642,-4.002"
         style="stroke:#000000"
         inkscape:connector-curvature="0" />
      <path
         id="c40019"
         d="m 493.83,393.05698 3.9615,0.06 -0.0481,3.022 5.9548,0.09 0.0553,0.06 0.041,0.507 -0.21751,0.153 0,0.05 0.0571,0.113 0.19968,0.119 1.8007,0.02 -0.0392,3.696 -0.6613,0.0127 -0.0465,2.3353 -11.195,-0.153 0.0499,-5.037 0.0874,-5.04"
         style="stroke:#000000"
         inkscape:connector-curvature="0" />
      <path
         id="c40067"
         d="m 482.85,397.86698 10.89,0.235 -0.0499,5.037 -0.0642,4.002 -0.68284,-0.476 -1.9362,-1.292 -0.65074,0.82 -0.99663,1.036 -0.94849,0.747 -0.59369,0.176 -0.22643,-0.02 -1.6777,-0.765 -0.21037,-0.194 0.49028,-1.061 0.16938,-1.229 -0.007,0 -0.7078,-0.28 -0.65967,0.161 -0.43326,0 -0.80408,-0.241 -0.0321,0 -0.0481,-0.05 -0.32983,-0.66 0.65805,-0.70388 -0.1551,-1.0617 -1.0008,-0.63883 0.008,-3.5336"
         style="stroke:#000000"
         inkscape:connector-curvature="0" />
      <path
         id="c40137"
         d="m 491.9,388.99698 2.0063,0.0208 -0.0772,4.0442 -0.0874,5.04 -10.89,-0.235 0.0571,-5.023 0.0571,-3.9768 1.0269,-0.0232 7.907,0.153"
         style="stroke:#000000"
         inkscape:connector-curvature="0" />
      <path
         id="c40033"
         d="m 473.05,394.92698 1.9416,4.2e-4 1.1784,-0.81253 3.8136,-0.003 0.99662,-0.849 0.66679,-0.444 1.2623,0.02 -0.0571,5.023 -0.008,3.5339 1.0008,0.63908 0.1551,1.0619 -0.65805,0.70413 -1.1482,-1.889 -2.9417,-0.923 -0.72385,-0.162 -0.36905,0.208 -0.76307,0.965 -1.0127,0.909 -0.016,0.02 -0.007,0 -0.54021,-0.194 -0.89856,-1.446 -0.43324,-0.369 -0.41897,-0.277 -0.19255,-0.01 0.11945,-3.993 -0.98771,-0.02 0.041,-1.68"
         style="stroke:#000000"
         inkscape:connector-curvature="0" />
      <path
         id="c40031"
         d="m 474.13,384.57698 9.8842,0.248 -0.025,4.019 -1.0269,0.0232 -0.0571,3.9768 -1.2623,-0.02 -0.66679,0.444 -0.99662,0.849 -3.8136,0.003 -1.1784,0.81253 -1.9416,-4.2e-4 0.0553,-1.749 -1.0929,-0.622 -1.9843,-0.06 0.0571,-2.016 0.17651,-6.035 3.8724,0.121"
         style="stroke:#000000"
         inkscape:connector-curvature="0" />
      <path
         id="c40141"
         d="m 470.09,390.48698 -0.0571,2.016 1.9843,0.06 1.0929,0.622 -0.0553,1.749 -0.041,1.679 0.98771,0.02 -0.11945,3.994 -1.7205,0.53 -1.2373,-0.05 -1.7436,-0.426 -1.7508,-1.047 -0.26565,-0.133 -0.025,0 -1.7436,-0.138 -0.76307,0.01 -0.35301,0.02 -0.7078,-0.161 -0.3851,-0.119 -0.24069,-0.07 -0.009,-0.01 -0.32805,-1.783 0.0161,-0.499 0.0232,-0.531 0.29774,-0.09 0.0642,-0.126 0,-0.188 -0.2817,-0.795 -0.11945,-0.1 -0.25852,0.03 -0.1034,-0.348 -0.0321,-0.447 0.353,-1.553 0.75594,-1.575 0.42432,-0.595 0.41898,-0.09 0.79516,0.06 0.0891,0.1 0.1355,-0.02 0.0731,-0.05 0.0392,-0.545 -0.14263,-0.273 -0.24247,-0.298 1.2694,0.05 0.62757,0.772 -0.009,0.255 3.2876,0.1"
         style="stroke:#000000"
         inkscape:connector-curvature="0" />
      <path
         id="c40065"
         d="m 462.36,384.96698 1.0608,-0.795 0.1765,-0.03 0.0731,0.03 0.39401,0.266 0.0874,0.146 -0.44642,3.2141 2.0617,0.0789 -0.85934,1.439 0.24247,0.298 0.14263,0.272 -0.0392,0.546 -0.0731,0.05 -0.1355,0.02 -0.0891,-0.1 -0.79516,-0.06 -0.41898,0.09 -0.42432,0.595 -0.75594,1.575 -0.353,1.552 0.0321,0.448 0.1034,0.348 0.25852,-0.03 0.11945,0.1 0.2817,0.795 0,0.187 -0.0642,0.127 -0.29774,0.09 0,-0.02 -0.89143,-1.551 -0.94136,-0.506 -0.82725,-0.45 -0.8112,1.453 -0.007,0.02 -0.025,0.04 -0.016,0 -0.14441,0.06 -0.63471,-0.06 -0.61865,-0.586 -0.46711,-0.273 -0.28883,-0.121 -0.90035,-0.105 -0.20859,-0.03 -0.10341,0.04 -0.73276,0.925 -0.89144,0 -0.57943,-0.137 -1.3175,-1.254 -0.47424,-0.561 -0.98058,-1.272 3.4231,0.138 0.18542,-5.03 2.6119,0.09 1.7847,-0.06 -0.0892,-0.208 -0.025,-0.507 0.0642,-0.176 0.62757,-0.997 2.9168,0.113 0.0802,-0.218"
         style="stroke:#000000"
         inkscape:connector-curvature="0" />
      <path
         id="c40055"
         d="m 450.52,379.70698 1.9754,0.09 0.0802,-2.01 6.1812,0.243 0.79338,0.08 0.74881,0.644 0.79516,1.173 -0.0802,0.522 -0.17651,0.626 0.24069,2.717 0.13728,0.193 1.1482,0.987 -0.0802,0.218 -2.9168,-0.112 -0.62757,0.996 -0.0642,0.177 0.025,0.506 0.0892,0.209 -1.7847,0.06 -2.6119,-0.09 0.0482,-0.57327 -1.2358,-0.0596 0.18206,-4.4851 -2.9471,-0.114 0.0802,-2.001"
         style="stroke:#000000"
         inkscape:connector-curvature="0" />
      <path
         id="c40075"
         d="m 459.55,378.10698 0.92531,-0.01 9.5384,0.314 3.2948,0.05 0.95562,0.507 -0.12837,5.61 -3.8724,-0.121 -0.17651,6.035 -3.2876,-0.1 0.009,-0.255 -0.62757,-0.772 -1.2694,-0.05 0.85934,-1.439 -2.0617,-0.0789 0.44642,-3.2141 -0.0874,-0.146 -0.39401,-0.266 -0.0731,-0.03 -0.1765,0.03 -1.0608,0.795 -1.1482,-0.987 -0.13728,-0.193 -0.24069,-2.717 0.17651,-0.626 0.0802,-0.522 -0.79516,-1.173 -0.74881,-0.644"
         style="stroke:#000000"
         inkscape:connector-curvature="0" />
      <path
         id="c40057"
         d="m 448.43,379.61698 2.0895,0.09 -0.0802,2.001 2.9471,0.114 -0.18206,4.4856 1.2358,0.0599 -0.0482,0.57352 -0.18542,5.029 -3.4231,-0.137 -2.7545,-1.373 0.12836,-4.275 0.27278,-6.565"
         style="stroke:#000000"
         inkscape:connector-curvature="0" />
      <path
         id="c40101"
         d="m 527.59,362.06698 2.1466,-0.02 1.3381,1.314 1.9324,-0.35523 2.7966,0.0152 1.0608,0 2.4546,0.0449 0.1395,3.9651 0.0624,2.7973 1.4156,1.3567 -0.30309,0.199 -1.4334,1.687 -0.59191,1.6638 0.23768,0.27122 -0.62737,0.78937 -0.27963,-0.25385 -0.28107,0.46596 -0.82868,0.003 -0.0115,-0.57034 -1.3329,-0.0313 -0.004,-0.34332 -0.0464,-5.994 -6.8391,0.04 -0.009,-4.026 -0.98771,0 -0.009,-3.031"
         style="stroke:#000000"
         inkscape:connector-curvature="0" />
      <path
         id="c40091"
         d="m 528.59,369.11698 6.8391,-0.04 0.0464,5.994 -0.51743,-0.66207 -0.74346,-0.0188 -0.72167,0.63082 -1.248,0.298 -3.6139,2.007 -0.69176,0.316 -2.1475,-0.004 -1.5573,0.78293 -0.67571,-0.03 0.0499,-3.197 0,-2.018 1.9665,0 0,-0.644 0.27278,-1.373 0.7078,-2.041 2.0342,0"
         style="stroke:#000000"
         inkscape:connector-curvature="0" />
      <path
         id="c40063"
         d="m 515.03,375.16698 8.5827,0.03 -0.0499,3.197 -0.36905,0.06 -0.16224,0.1 -0.90748,1.238 -0.5206,0.964 -0.0731,6.535 -5.8977,-0.01 -0.0465,-3.3277 -1.5207,0.009 0.0321,-4.752 0.91639,0.01 0.016,-4.037"
         style="stroke:#000000"
         inkscape:connector-curvature="0" />
      <path
         id="c40133"
         d="m 511.64,372.57698 0.12124,0.12 0.11232,0.03 1.3906,0.09 0.0321,-0.03 0.025,-0.119 -0.066,-0.289 0.15333,-0.79 1.0929,-0.399 0.54555,-0.145 -0.0232,4.111 -0.016,4.037 -0.91639,-0.01 -0.0321,4.752 -0.69673,1.0942 -0.65109,-0.68061 -1.3238,-0.31061 -1.5208,0.79149 -1.1508,-0.68849 0.0784,-11.825 0.97345,-0.314 1.872,0.57"
         style="stroke:#000000"
         inkscape:connector-curvature="0" />
      <path
         id="c40125"
         d="m 502.03,371.02698 9.6114,0.123 0.007,1.431 -1.872,-0.57 -0.97345,0.314 -0.0784,11.825 -2.8847,-1.508 -1.5315,1.3136 -1.1022,-0.0601 -0.39383,-0.72553 -0.95191,0.176 0.13729,-10.29 0.0321,-2.029"
         style="stroke:#000000"
         inkscape:connector-curvature="0" />
      <path
         id="c40027"
         d="m 492.13,372.88698 9.8593,0.161 -0.13729,10.29 -1.0198,0.06 -2.3623,-0.632 -0.24069,-0.145 -0.0963,-0.09 -0.12124,-0.369 -0.15154,-1.302 -0.28348,-1.125 -0.88252,-1.488 -3.769,-3.767 -0.81833,-0.667 0.0232,-0.931"
         style="stroke:#000000"
         inkscape:connector-curvature="0" />
      <path
         id="c40087"
         d="m 492.11,373.82698 0.81833,0.667 3.769,3.767 0.88252,1.488 0.28348,1.125 0.15154,1.302 0.12124,0.369 0.0963,0.09 0.24069,0.144 2.3623,0.633 1.0198,-0.06 0.95191,-0.176 0.39383,0.72553 1.1022,0.0601 1.5315,-1.3136 -0.0642,2.539 -13.79,-0.202 0.13015,-11.128 0,-0.03"
         style="stroke:#000000"
         inkscape:connector-curvature="0" />
      <path
         id="c40051"
         d="m 484.22,372.72698 1.5956,0.018 1.746,1.0244 2.2859,0.22119 1.6128,0.11041 0.65253,-0.24 -0.13015,11.128 -0.0802,4.019 -7.907,-0.153 0.025,-4.019 0.19968,-12.1"
         style="stroke:#000000"
         inkscape:connector-curvature="0" />
      <path
         id="c40015"
         d="m 480.27,368.60698 0.0981,0 0.016,0.248 -0.0802,3.794 3.9116,0.07 -0.19968,12.1 -9.8842,-0.248 0.12837,-5.61 0.066,-0.09 0.0642,-2.373 -0.0321,-2.378 0.0963,-3.648 0.0624,-2.015 5.7533,0.152"
         style="stroke:#000000"
         inkscape:connector-curvature="0" />
      <path
         id="c40017"
         d="m 482.34,364.63698 9.8842,0.188 -0.0892,8.067 -0.0232,0.931 0,0.03 -0.65253,0.24 -1.6128,-0.11041 -2.2859,-0.22119 -1.746,-1.0244 -1.5956,-0.018 -3.9116,-0.07 0.0802,-3.794 -0.016,-0.248 -0.0981,0 0.0766,-4.005 1.9898,0.034"
         style="stroke:#000000"
         inkscape:connector-curvature="0" />
      <path
         id="c40109"
         d="m 492.22,364.82698 9.8842,0.173 -0.082,6.026 -0.0321,2.029 -9.8593,-0.161 0.0892,-8.067"
         style="stroke:#000000"
         inkscape:connector-curvature="0" />
      <path
         id="c40081"
         d="m 511.77,360.06698 -0.0321,6.998 -0.10341,4.081 -9.6114,-0.123 0.082,-6.026 0.0624,-5.028 9.6025,0.1"
         style="stroke:#000000"
         inkscape:connector-curvature="0" />
      <path
         id="c40107"
         d="m 519.69,367.09698 -0.009,2.025 1.9451,0 0.007,4.058 1.979,0 0,2.018 -8.5827,-0.03 0.0232,-4.111 -0.54555,0.145 -1.0929,0.399 -0.15333,0.79 0.066,0.289 -0.025,0.119 -0.0321,0.03 -1.3906,-0.09 -0.11232,-0.03 -0.12124,-0.12 -0.007,-1.431 0.10341,-4.081 7.948,0.03"
         style="stroke:#000000"
         inkscape:connector-curvature="0" />
      <path
         id="c40111"
         d="m 527.59,362.06698 0.009,3.031 0.98771,0 0.009,4.026 -2.0342,0 -0.7078,2.041 -0.27278,1.373 0,0.644 -3.9455,0 -0.007,-4.058 -1.9451,0 0.009,-2.025 0.007,-5.039 2.9506,0 3.9455,0.02 0.99484,-0.02"
         style="stroke:#000000"
         inkscape:connector-curvature="0" />
      <path
         id="c40145"
         d="m 533.59,356.97698 4.2914,-0.02 0.007,0.806 -0.48138,1.13 -0.0731,0.08 -0.25673,0.01 -0.36905,0.33 -0.11233,0.216 -0.0731,1.31 0.29774,2.122 0.041,0.06 -1.0608,0 -2.7966,-0.0152 -1.9324,0.35523 -1.3381,-1.314 -2.1466,0.02 -0.99484,0.02 0.0133,-1.1435 0.9395,-0.0294 0.11513,-5.9302 2.6369,-0.02 0.88252,1.133 0.20146,0.361 -0.0802,0.315 -0.28882,0.04 0.0464,0.105 0.1141,0.07 2.4176,-0.02"
         style="stroke:#000000"
         inkscape:connector-curvature="0" />
      <path
         id="c40131"
         d="m 526.75,344.90698 6.9264,-0.02 1.9598,-7e-4 -0.0486,2.0077 -1.9665,0.02 -0.0499,6.041 0.016,4.029 -2.4176,0.02 -0.1141,-0.07 -0.0464,-0.105 0.28882,-0.04 0.0802,-0.315 -0.20146,-0.361 -0.88252,-1.133 -2.6369,0.02 -1.0682,-0.0139 0.0766,-5.5295 0.46534,-0.002 0.0231,-0.47006 -0.44526,-0.0278 0.041,-4.034"
         style="stroke:#000000"
         inkscape:connector-curvature="0" />
      <path
         id="c40105"
         d="m 531.97,335.57698 2.0913,0 0.0287,1.5532 -0.43039,-0.007 0.0238,7.7682 -6.9264,0.02 0.0373,-7.9057 0.38354,0.0121 -0.0286,-1.4114 4.8209,-0.03"
         style="stroke:#000000"
         inkscape:connector-curvature="0" />
      <path
         id="c40147"
         d="m 523.91,335.60698 3.2306,0 0.0286,1.4114 -0.38354,-0.0121 -0.0373,7.9057 -0.041,4.034 -3.4712,0 0.009,-13.33 0.66501,0"
         style="stroke:#000000"
         inkscape:connector-curvature="0" />
      <path
         id="c40143"
         d="m 523.24,348.93698 3.4712,0 0.44526,0.0278 -0.0231,0.47006 -0.46534,0.002 -0.0766,5.5295 1.0682,0.0139 -0.11513,5.9302 -0.9395,0.0294 -0.0133,1.1435 -3.9455,-0.02 0.0624,-5.061 -4.9403,-0.02 0,-2 0.54556,0 4.9261,0.04 0,-6.089"
         style="stroke:#000000"
         inkscape:connector-curvature="0" />
      <path
         id="c40037"
         d="m 511.81,355.00698 5.9619,-0.02 0,2 4.9403,0.02 -0.0624,5.061 -2.9506,0 -0.007,5.039 -7.948,-0.03 0.0321,-6.998 0.0339,-5.063"
         style="stroke:#000000"
         inkscape:connector-curvature="0" />
      <path
         id="c40119"
         d="m 506.22,352.95698 1.9612,0.02 -0.025,2.035 3.6495,0 -0.0339,5.063 -9.6025,-0.1 -3.9294,-1.052 0.0571,-4.036 3.9294,0.05 0.025,-2.016 3.9687,0.04"
         style="stroke:#000000"
         inkscape:connector-curvature="0" />
      <path
         id="c40083"
         d="m 492.37,354.65698 3.9615,0.07 1.9683,0.152 -0.0571,4.036 3.9294,1.052 -0.0624,5.028 -9.8842,-0.173 0.14441,-10.168"
         style="stroke:#000000"
         inkscape:connector-curvature="0" />
      <path
         id="c40073"
         d="m 482.52,354.45698 1.9612,0.04 7.891,0.159 -0.14441,10.168 -9.8842,-0.188 0.0963,-4.016 0.025,-3.352 0.0553,-2.812"
         style="stroke:#000000"
         inkscape:connector-curvature="0" />
      <path
         id="c40011"
         d="m 474.66,354.25698 7.8589,0.199 -0.0553,2.812 -0.025,3.352 -0.0963,4.016 -1.9898,-0.034 -0.0766,4.005 -5.7533,-0.152 0,-6.035 0.13728,-8.163"
         style="stroke:#000000"
         inkscape:connector-curvature="0" />
      <path
         id="c40149"
         d="m 474.46,370.46698 -0.0963,3.648 0.0321,2.378 -0.0642,2.373 -0.066,0.09 -0.95562,-0.507 -3.2948,-0.05 -9.5384,-0.314 0.2086,-8.076 13.774,0.456"
         style="stroke:#000000"
         inkscape:connector-curvature="0" />
      <path
         id="c40009"
         d="m 460.71,369.00698 -0.0321,1.006 -0.2086,8.076 -0.92531,0.01 -0.79338,-0.08 -6.1812,-0.243 -0.0802,2.01 -1.9754,-0.09 -2.0895,-0.09 0.15333,-3.519 0.23177,-5.547 7.8999,0.332 0.0713,-2.018 3.9294,0.144"
         style="stroke:#000000"
         inkscape:connector-curvature="0" />
      <path
         id="c40039"
         d="m 460.75,361.98698 13.773,0.437 0,6.035 -0.0624,2.015 -13.774,-0.456 0.0321,-1.006 0.0321,-7.025"
         style="stroke:#000000"
         inkscape:connector-curvature="0" />
      <path
         id="c40043"
         d="m 468.78,354.15698 5.8817,0.1 -0.13728,8.163 -13.773,-0.437 0.0731,-4.651 0.1034,-3.503 7.8518,0.331"
         style="stroke:#000000"
         inkscape:connector-curvature="0" />
      <path
         id="c40129"
         d="m 460.82,357.33698 -0.0731,4.651 -0.0321,7.025 -3.9294,-0.144 -0.0713,2.018 -7.8999,-0.332 0.19433,-4.546 0.24782,-6.06 1.2251,-0.027 0.51993,-2.0117 1.4837,-0.43465 -0.006,1.8141 0.49074,0.12025 0.44037,0.548 0.16046,0.128 0.90926,0.571 0.57765,0.208 0.92353,0.234 0.28169,0.03 1.0858,-0.451 0.0642,-0.06 0.88431,-1.398 0.312,-1.054 0.0481,-0.1 0.17828,-0.159 0.45642,-0.33 0.31378,-0.155 0.45107,-0.1 0.76307,0"
         style="stroke:#000000"
         inkscape:connector-curvature="0" />
      <path
         id="c40045"
         d="m 457.19,343.76698 -0.29239,9.9116 4.0275,0.15436 -0.1034,3.503 -0.76307,0 -0.45107,0.1 -0.31378,0.155 -0.45642,0.33 -0.17828,0.159 -0.0481,0.1 -0.312,1.054 -0.88431,1.398 -0.0642,0.06 -1.0858,0.451 -0.28169,-0.03 -0.92353,-0.234 -0.57765,-0.208 -0.90926,-0.571 -0.16046,-0.128 -0.44037,-0.548 -0.49074,-0.12025 0.006,-1.8141 -1.4837,0.43465 -0.51993,2.0117 -1.2251,0.027 0.16938,-4.04 0.37796,-10.278 0.10341,-2.163 7.2812,0.3"
         style="stroke:#000000"
         inkscape:connector-curvature="0" />
      <path
         id="c40153"
         d="m 457.19,343.76698 5.6802,0.151 0.18542,-5.192 0.016,0.33 0.41719,0.369 0.30487,0.113 1.6082,-0.07 0.24069,0.08 0.26564,0.155 3.0772,4.32 -0.0392,2.139 -0.16938,7.996 -7.8518,-0.331 -4.0275,-0.15436 0.29239,-9.9116"
         style="stroke:#000000"
         inkscape:connector-curvature="0" />
      <path
         id="c40093"
         d="m 484.62,347.59698 -0.14441,6.905 -1.9612,-0.04 -7.8589,-0.199 -5.8817,-0.1 0.16938,-7.996 2.1377,0.08 0.41719,0.828 0.20859,0.24 0.27278,0.186 1.6884,0.907 1.0038,0.467 0.33696,0.114 0.41897,0.05 1.2783,-0.12 0.0392,-1.528 7.8749,0.2"
         style="stroke:#000000"
         inkscape:connector-curvature="0" />
      <path
         id="c40047"
         d="m 496.46,344.79698 0.009,0 -0.13728,9.931 -3.9615,-0.07 -7.891,-0.159 0.14441,-6.905 0.0713,-3.02 11.765,0.226"
         style="stroke:#000000"
         inkscape:connector-curvature="0" />
      <path
         id="c40103"
         d="m 503.87,344.88698 0.10653,0.40063 0.23237,0.27407 1.7848,-0.42232 0.36378,0.72329 -0.67584,0.50687 -0.9641,-0.0697 0.005,0.61212 -0.41006,0 -0.041,4.019 1.9683,0.02 -0.0232,2.009 -3.9687,-0.04 -0.025,2.016 -3.9294,-0.05 -1.9683,-0.152 0.13728,-9.931 7.4078,0.09"
         style="stroke:#000000"
         inkscape:connector-curvature="0" />
      <path
         id="c40117"
         d="m 506.22,352.95698 0.0232,-2.009 -1.9683,-0.02 0.041,-4.019 0.41006,0 0.0802,0.481 0.42611,0.468 0.24782,0.135 0.53129,0.12 1.1866,-0.27819 0.67232,-1.1447 1.2954,-1.0379 0.81053,0.40388 0.28091,2.456 0.86472,0.68278 1.1242,0.2792 0.92237,0.97105 -0.43962,1.122 1.0017,0.48779 0.85757,-1.0112 0.64679,-0.0366 -0.0162,0.42463 2.0016,2.1542 2.0016,0.0787 -0.90863,1.3204 -0.54556,0 -5.9619,0.02 -3.6495,0 0.025,-2.035 -1.9612,-0.02"
         style="stroke:#000000"
         inkscape:connector-curvature="0" />
      <path
         id="c40113"
         d="m 509.59,335.54698 4.0899,0.02 9.5722,0.03 -0.009,13.33 0,6.089 -4.9261,-0.04 0.90863,-1.3204 -2.0016,-0.0787 -2.0016,-2.1542 0.0162,-0.42463 -0.64679,0.0366 -0.85757,1.0112 -1.0017,-0.48779 0.43962,-1.122 -0.92237,-0.97105 -1.1242,-0.2792 -0.86472,-0.68278 -0.28091,-2.456 -0.81053,-0.40388 -1.2954,1.0379 -0.67232,1.1447 -1.1866,0.27819 -0.53129,-0.12 -0.24782,-0.135 -0.42611,-0.468 -0.0802,-0.481 -0.005,-0.61212 0.9641,0.0697 0.67584,-0.50687 -0.36378,-0.72329 -1.7848,0.42232 -0.23237,-0.27407 -0.10653,-0.40063 0.0963,-1.157 0.98058,-1.061 2.6921,-1.277 0.36192,0.07 0.1355,-0.05 1.3586,-0.834 0.0874,-5.031"
         style="stroke:#000000"
         inkscape:connector-curvature="0" />
      <path
         id="c40071"
         d="m 496.6,335.40698 5.7373,0.07 7.2474,0.07 -0.0874,5.031 -1.3586,0.834 -0.1355,0.05 -0.36192,-0.07 -2.6921,1.277 -0.98058,1.061 -0.0963,1.157 -7.4078,-0.09 -0.009,0 0.14442,-9.392"
         style="stroke:#000000"
         inkscape:connector-curvature="0" />
      <path
         id="c40053"
         d="m 490.41,335.29698 6.1955,0.107 -0.14442,9.392 -11.765,-0.226 -0.0945,0 0.17472,-8.068 -0.016,-1.303 5.6499,0.105"
         style="stroke:#000000"
         inkscape:connector-curvature="0" />
      <path
         id="c40003"
         d="m 480.47,335.09698 4.2824,0.09 0.016,1.303 -0.17472,8.068 0.0945,0 -0.0713,3.02 -7.8749,-0.2 0.12124,-12.407 3.6068,0.115"
         style="stroke:#000000"
         inkscape:connector-curvature="0" />
      <path
         id="c40151"
         d="m 460.27,334.44698 8.2939,0.282 8.3082,0.256 -0.12124,12.407 -0.0392,1.528 -1.2783,0.12 -0.41897,-0.05 -0.33696,-0.114 -1.0038,-0.467 -1.6884,-0.907 -0.27278,-0.186 -0.20859,-0.24 -0.41719,-0.828 -2.1377,-0.08 0.0392,-2.139 -3.0772,-4.32 -0.26564,-0.155 -0.24069,-0.08 -1.6082,0.07 -0.30487,-0.113 -0.41719,-0.369 -0.016,-0.33 -2.7884,-4.275"
         style="stroke:#000000"
         inkscape:connector-curvature="0" />
      <path
         id="c40059"
         d="m 450.31,334.00698 8.4062,0.385 1.5511,0.06 2.7884,4.275 -0.18542,5.192 -5.6802,-0.151 -7.2812,-0.3 0.40115,-9.458"
         style="stroke:#000000"
         inkscape:connector-curvature="0" />
      <path
         id="c40007"
         d="m 433.14,333.28698 5.682,0.241 9.9074,0.408 1.5814,0.07 -0.40115,9.458 -0.10341,2.163 -9.9484,-0.444 -7.4809,-0.376 0.4261,-8.063 0.15155,0 0.18542,-3.455"
         style="stroke:#000000"
         inkscape:connector-curvature="0" />
    </g>
  </g>
  <g
     inkscape:groupmode="layer"
     id="layer3"
     inkscape:label="State Outlines"
     style="display:none"
     sodipodi:insensitive="true"
     transform="translate(0,-127.07001)">
    <path
       id="borders"
       d="m 218.14,190.73 -4.0008,-0.788 -3.6157,-0.715 -4.4037,-0.997 -2.5156,-0.506 -2.0806,-0.328 -24.5,-5.201 -1.9291,-0.442 -6.4932,-1.487 -0.12836,-0.05 -19.43,-4.418 -9.6186,-2.211 -9.0231,-2.275 -0.58835,-0.151 -10.533,-2.683 m 298.16,94.021 -0.60261,9.927 -0.007,0.134 -0.59548,10.069 -0.11232,1.995 -0.49029,8.084 -0.12837,1.902 -0.49742,8.013 -0.009,0.144 -0.72385,12.125 -0.12836,2.177 -0.3851,5.898 -0.58657,9.162 -5.6963,-0.401 -9.451,-0.779 -2.307,-0.178 -1.5261,-0.113 -16.754,-1.246 -13.161,-1.1 -4.8708,-0.448 -2.8044,-0.315 -1.1892,-0.114 -9.032,-0.915 -5.2238,-0.538 -8.5168,-0.876 -2.5548,-0.274 -4.582,-0.505 -2.3445,-0.451 -7.6111,-0.9 -1.1,-0.136 -16.24,-2.032 -12.029,-1.608 -17.253,-2.452 -5.9548,-0.9 -2.94,-0.58 -4.6052,-0.697 -11.933,-1.872 -20.257,-3.414 -6.4451,-1.143 -20.635,-3.84 m 122.22,140.38 -1.5101,-1.615 -0.18542,-0.249 -0.35272,-0.42662 -0.008,-0.26999 -0.091,-0.33842 0.40028,-0.3547 0.14838,-1.2071 -0.35526,-0.11628 0.0311,-0.40265 0.39485,-0.19134 0.78818,0.0621 4.2272,0.447 7.3276,0.772 20.885,2.131 1.3675,0.128 15.95,1.43 0.85934,0.07 4.9813,0.408 7.6913,0.603 1.141,0.09 1.0038,0.07 1.3675,0.106 1.0911,0.09 0.47603,0.03 0.15154,-1.993 0.7399,-10.006 0.74702,-10.05 0.8843,-9.868 0.39402,-4.195 0.52951,-5.841 0.8843,-11.009 0.0161,-0.241 0.77198,-10.021 0.35301,-4.766 0.40114,-5.286 0.76307,-10.139 0.2086,-2.694 0.54734,-7.298 0.43502,-6.074 0.27991,-3.705 0.75594,-0.449 0.85043,-11.547 m 120.05,-122.47 0.57765,0.04 0.22464,0.09 0.17829,0.248 0.0713,0.265 0.007,0.355 -0.11945,0.319 0.19968,2.646 0.51525,0.965 -0.21038,1.422 1.4067,3.889 2.2589,4.195 0.30487,4.243 2.3962,4.065 0.74702,2.635 0.25674,4.677 1.2052,0.724 -0.23356,2.619 0.76485,3.358 -0.54021,2.732 1.5511,4.598 0.97166,1.414 0.22643,-0.491 0.65075,0.578 -0.37797,0.676 -0.19968,0.185 0.0963,0.408 1.1321,2.846 1.2141,1.182 0.0463,0.119 -0.005,0.04 0,0.03 -0.0178,0.417 0,0.06 4.2985,6.044 0.009,0.216 0.11232,0.162 2.1216,1.92 0.85935,0.553 0.43324,0.16 0.33696,0.128 0.0642,0.02 0.0802,0 0.66858,-0.06 0.13015,-0.05 0.1034,-0.1 0.0143,-0.02 0.60261,-0.683 1.4709,1.849 0.14442,0.683 0.13728,0.634 -0.36906,0.822 -0.37083,0.06 -1.2694,1.124 -0.0713,0.08 -0.6044,0.882 -0.20859,0.298 -0.6971,2.097 2.3855,2.624 3.1664,5.017 3.3999,0.907 -0.082,1.079 0.025,1.606 0.0571,4.565 0.007,2.522 0.025,6.044 0.0232,2.058 0.0963,7.614 0.009,0.541 0.0553,8.429 0.007,0.451 0.10518,6.707 0.007,0.603 0.0874,6.525 0.0178,1.359 0.0731,5.359 0.0392,2.291 0.0553,3.903 1.1339,7.803 0.21751,1.377 1.2141,7.921 0.4261,2.788 0.84152,5.554 -0.007,0.403 -0.11232,10.341 -0.0481,4.747 -0.0392,5.121 -0.0571,7.343 -0.041,5.761 -0.0463,7.001 m 34.383,-303.16 -0.082,0.06 -0.22285,-0.1 -0.91462,-0.893 -0.42789,0.03 -1.1232,0.765 -0.0892,0.183 -0.016,0.17 0.0553,0.144 0.0802,0.105 0.016,0.02 0.016,0.257 -0.21573,0.563 -0.0731,0.07 -0.0784,0.05 -0.47603,0.03 -0.44215,-0.04 -0.36014,-0.25 0.20859,5.632 0.21573,5.964 0.041,0.996 0.0321,0.901 -2.3391,1.46 -3.3482,2.204 -0.79872,0.698 -0.20147,0.266 -0.19968,0.36 -1.6135,3.231 -0.65432,2 -0.0214,0.364 0.007,0.151 0.041,0.61 0.0553,0.451 0.21751,0.168 0.77199,0.13 0.32091,-0.05 1.2712,0.685 0.79338,1.501 0.32091,1.624 -0.60974,1.558 -0.42789,0.53 -0.0214,0.02 -0.19433,0.176 -0.24782,2.001 -0.33875,3.029 0.0499,0.756 0.39936,0.852 0.34945,1.615 -0.1248,1.735 -0.56874,2.717 1.166,0.674 1.6937,1.439 0.17651,0.224 0.041,0.225 1.1892,1.182 0.25851,0.119 0.69889,0.08 2.209,0.09 0.28169,0.06 0.18542,0.09 0.15867,0.137 0.0571,0.09 0.0907,1.0972 1.2126,0.84785 2.6351,1.004 1.8087,0.86839 0.88464,0.84954 -0.0206,0.51007 -0.10888,0.35855 0.38146,0.33967 0.34375,1.2638 0.24945,0.52827 5.2369,3.7568 2.5868,0.74896 2.4015,3.054 0.40293,2.78 1.1,5.151 0.28882,1.775 -0.016,1.182 1.7846,1.255 0.38688,0.491 0.50456,0.811 -0.0642,0.287 -1.2837,2.163 -0.43681,1.695 0.35658,2.186 0.37618,1.758 1.535,3.409 0.2086,0.433 1.3568,0.9 0.46712,0.216 0.8843,0.21 2.1769,0.418 0.8433,0.201 0.19255,0.1 0.12124,0.121 1.0697,1.945 0.18363,0.579 0.0107,0.13 -0.0642,0.111 3.6139,-0.178 8.4294,-0.491 1.503,-0.09 7.3508,-0.38 0.60261,-0.04 7.1778,-0.394 2.7634,-0.184 1.166,-0.08 6.7802,-0.563 1.7526,-0.177 6.7357,-0.465 m -47.875,3.036 -0.23534,0.403 -0.007,0.05 0.016,0.129 0.0392,0.116 0.13728,0.142 0.39223,0.282 1.1357,0.587 1.4441,1.005 0.007,0 0.0428,0.04 1.0109,1.172 0.0481,0.07 0.009,0.09 -0.0963,0.651 -0.0963,0.215 0,0.146 0.23534,0.53 0.0125,0.03 0.48316,0.603 0.016,0.01 0.29061,0.233 0.312,0.202 0.7078,0.226 2.972,3.541 0.18542,2.405 -1.3265,3.437 -1.2052,1.352 -0.26565,2.505 -0.89143,1.198 -1.0198,1.189 -3.2466,1.608 -1.3835,0.353 -0.58656,0.02 -0.24782,-0.03 -1.0519,0 -2.4104,0.658 -0.6454,0.234 -0.18364,0.119 -0.016,0 -0.12124,0.171 -0.016,0.05 -0.23891,0.982 -0.20325,0.792 -0.49029,1.966 0.025,0.207 1.1642,1.4 0.54912,0.272 0.22999,-0.03 0.13907,0.06 0.14619,0.152 0.80942,1.326 -0.016,0.555 0.016,0.06 0.0642,0.2 0.0874,0.62 -0.0695,1.872 -0.1462,0.683 -0.0963,0.144 -0.49742,0.282 -0.18542,0.182 -1.3425,1.915 -0.0642,0.297 -0.11945,2.603 -1.207,1.416 -0.56161,0.01 -0.45819,0.03 -0.14442,0 -0.93422,0.335 -0.10341,0.06 -0.43502,0.248 -0.15332,0.1 -0.0535,0.06 -0.0642,0.06 -0.0642,0.07 -0.73097,1.123 -0.0267,0.171 0.0571,0.193 0.35479,0.167 0.28882,0.419 0.0963,0.28 0.0143,0.232 -0.0535,2.082 -0.041,0.202 -0.2086,0.167 -0.53129,0.187 -1.2837,3.062 -0.10697,1.125 1.2302,5.858 1.7526,4.249 1.043,1.656 2.4782,1.886 4.2343,4.397 4.3128,3.833 0.82725,2.821 -0.0143,0.288 -0.48315,0.747 -0.0178,0.07 0.0446,0.161 0.95562,2.562 3.7672,-0.995 3.1646,0.77 0.45819,0.139 0.44929,0.216 0.33874,0.2 1.7436,1.053 0.0731,0.129 0.016,0.135 -0.0642,0.532 -0.0392,0.217 -1.2944,1.58 0.36727,1.85 -1.1785,3.053 -0.0802,0.283 -1.2391,3.222 -0.0499,0.06 -0.0802,0.16 -0.26208,0.892 -0.0339,0.1 -0.016,0.234 0.0339,0.964 0.24068,1.034 0.2086,0.515 0.32983,0.451 0.0571,0.08 0.0464,0.05 1.5119,1.47 0.91283,0.683 5.0883,4.645 4.8548,1.348 3.1164,5.159 0,0.137 m 1.3657,24.716 0.98949,-0.05 0.18007,-0.339 0.0285,-0.06 0.0232,-0.09 0.0571,-0.227 0.016,-0.06 0,-0.1 -0.007,-0.04 -0.0571,-0.259 -0.11232,-0.266 -0.0107,-0.02 -0.11767,-0.183 -0.025,-0.02 -0.0392,-0.03 -0.0481,-0.03 -0.28169,-0.08 -0.51347,-0.08 -0.33696,0.05 -0.1141,0.07 -0.21038,0.281 -0.0303,0.04 -0.0232,0.09 -0.025,0.105 -0.0178,0.08 0.0178,0.07 0.0178,0.1 0.007,0.02 0.19968,0.426 0.43324,0.609 0.17221,1.4366 0.73163,1.0374 0.0356,1.0723 -0.79321,0.19069 -0.96399,0.24949 1.1929,0.8177 0.42823,0.81697 -1.1619,0.66881 -1.5765,-0.18128 0.76907,1.2283 1.167,0.73525 -0.15479,0.85658 -1.2512,0.69806 -0.12674,1.2144 -0.61534,0.89166 0.0377,0.67553 0.89097,0.33102 0.47617,0.55124 -0.26856,0.98014 -0.98147,-0.34724 -0.73569,0.0621 -0.1568,0.82911 1.205,0.58178 -0.22483,0.82141 -1.1873,0.209 -0.28817,0.5779 -0.428,0.41332 -1.0431,0.36073 -0.56619,-0.0977 -0.83543,0.76386 0.63059,1.2246 0.94802,-0.50345 0.70215,0.72534 -0.36423,0.74618 -1.5684,0.91194 0.54536,0.76537 0.31793,1.0381 -1.3548,-0.31409 -0.28014,-0.63513 -0.71907,0.0802 -0.0609,1.1084 0.52054,0.70173 -0.28397,1.8251 -0.33266,0.0152 -0.59069,-0.62596 -0.54086,-1.0837 -0.50482,0.64672 -0.87967,0.29964 0.1373,1.1296 0.35218,-0.19852 0.1536,-0.42278 0.46648,-0.25947 0.84871,0.74874 -0.29434,0.36918 0.13487,0.58916 -0.17755,0.67676 -1.0595,0.64707 0.26079,0.47372 0.94121,-7.3e-4 0.54624,0.43556 0.16377,0.66029 -0.61348,0.88774 0.83425,0.29002 -0.0918,0.81537 -0.54234,0.63711 -1.227,-0.60771 -0.41757,0.45107 -0.57819,1.7883 -1.5967,0.11225 -0.22464,0.717 0.0321,0.321 0.47246,3.102 -2.0966,0.769 -2.8918,4.605 0.25673,2.676 0.20147,2.064 -0.1355,0.442 -0.0178,0.04 -0.041,0.03 -0.65075,0.57 -0.81834,0.392 -0.98949,0.204 -0.98593,0.192 -1.8007,3.231 -0.85399,1.759 -0.27278,0.569 0.0686,0.242 0.85667,0.699 0.20146,0.5 -0.11232,0.772 -3.7137,1.87 -1.5261,6.573 -0.10519,0.523 0.025,0.05 0.1141,0.203 0.56874,0.426 0.53842,0.435 0,0.02 -0.0499,0.247 -0.33696,0.289 -1.4049,0.565 0.26386,0.73 0.025,0.01 0.97345,0.663 0.79516,0.537 0.15155,0.536 -0.23178,0.459 -0.98949,0.288 0.96453,2.759 0.65075,1.18 0.4992,0.529 0.0553,1.767 -0.61865,2.518 -0.56161,0.634 -0.15511,0.177 -0.63292,1.021 -0.20146,0.731 0.0321,0.186 1.5422,6.989 0.11411,0.274 0.0214,0.04 0.0606,0.07 0.0214,0.04 0.041,0.03 0.18364,0.16 0.0481,0.04 0.61153,0.191 0.13728,0.314 -0.4368,1.47 0.0339,0.369 0,0.03 0.0553,0.08 0.082,0.128 0.016,0.04 2.1448,2.282 0.1355,3.318 -2.2411,0.278 1.9612,2.291 -3.9936,5.828 -2.225,2.942 -0.19255,0.346 -0.30844,0.528 -0.0143,0.02 -2.0967,4.212 -0.0481,0.09 -0.0731,0.155 -0.007,0.02 -0.73098,5.992 -0.47424,2.477 -0.47603,3.592 9.0552,-0.426 2.2838,-0.112 4.6052,-0.259 5.0954,-0.297 0.37618,-0.01 3.9384,-0.251 1.7276,-0.105 8.3242,-0.553 2.1127,-0.144 0.041,0.713 -0.24247,1.214 -0.1979,0.442 -0.12302,0.02 -0.16046,0.02 -0.0463,0.05 -0.25852,1.075 -0.29774,1.469 -0.2389,1.213 -0.21929,1.642 3.3019,4.548 0.0339,0.03 0.12836,0.13 1.2302,2.5 0.0303,0.426 -0.18363,0.465 -0.0499,0.193 0.016,0.123 0.62936,1.194 0.19255,0.371 0.43145,0.505 0.1462,0.169 0.0499,0.03 0.0713,0.05 0.0481,0.03 0.0374,0 0.91818,-0.06 m -3.5675,-157.16 -0.85756,-1.927 4.0632,-3.953 0.0981,-0.03 6.9033,2.935 1.3247,0.141 0.13549,-0.02 0.41898,-0.185 0.21573,-0.595 0.26564,-1.277 -0.51346,-1.141 -0.22464,-0.216 -0.24247,-0.137 -0.76307,-0.916 -0.15511,-0.498 0.0107,-0.153 0.51525,-2.273 0.0945,-0.227 0.23355,-0.303 0.16224,-0.114 0.12837,-0.1 0.312,-0.143 0.11232,-0.05 1.0537,0.344 0.45641,-0.608 0.30666,-0.283 0.016,0 0.0874,-0.06 0.43502,-0.264 0.0392,0 0.1141,-0.03 0.312,-0.09 2.8865,-0.611 0.18363,-0.04 0.3441,-0.392 0,-0.371 -1.4352,-1.487 -0.1462,-0.264 -0.3851,-1.045 -0.0107,-0.02 -0.0945,-0.52 -0.009,-0.03 0.025,-0.161 0.0963,-0.256 0.0232,-0.05 0.1462,-0.248 0.29061,-0.547 0.0143,0 0.83616,-0.608 0.21751,-0.236 0.1355,-0.247 0.0874,-0.234 0.23356,-0.875 0.85347,-0.0123 0.62549,0.40972 0.36884,-0.59896 0.35566,-0.30474 -0.761,-1.3758 0.1639,-0.64788 4.0756,-0.323 0.71405,-0.21545 -0.13273,1.5863 0.97575,0.25714 0.74424,-0.94261 -0.96608,-1.0453 0.53276,-1.6102 1.0862,1.0787 1.4406,-0.43465 2.7563,0.739 0.64361,0.45 2.6262,1.75 1.3425,-2.424 1.1179,-1.047 2.7973,-1.854 3.1967,3.316 0.13728,0 0.2389,-0.08 0.49921,-0.387 1.1731,-2.674 -0.1355,-1.373 0.0303,-0.252 0.0731,-0.103 0.0963,-0.06 0.36905,-0.07 0.10519,-0.01 3.6246,-2.329 -0.0553,0.649 0,0.04 0.007,0.161 0.007,0.105 0.0161,0.04 0.12836,0.449 0.10519,0.161 0.041,0.06 0.0874,0.06 0.81121,0.537 0.78089,0.306 0.12837,0.02 2.5959,0.128 0.53664,-0.177 0.86826,-0.296 0.44215,-4.041 1.6723,-2.757 2.4978,-2.41 3.2787,-3.712 -0.0553,-1.449 1.2444,-3.736 2.4835,0.862 2.9239,-2.001 3.8902,-2.63 -0.24247,-1.003 -1.774,-2.828 0.81833,-1.847 3.5515,0.305 2.0093,-0.733 3.4873,1.286 1.9522,3.198 0.16937,1.054 3.3019,0.939 2.6369,-0.281 0.60975,0.08 0.21751,0.08 0.11232,0.09 1.5671,1.622 1.3906,0.69 1.0269,-0.121 0.0963,-0.811 0.13728,-0.225 0.18542,-0.128 1.3978,-0.612 0.21929,-0.05 0.15154,0.02 0.025,0 0.72028,0.177 1.9148,0.46 0.0481,0.02 0.60083,0.282 1.0608,0.777 0.65297,-0.59473 1.7154,-0.2291 0.45033,-1.306 1.2409,-1.2932 0.31914,-0.145 1.4869,-0.674 0.48494,-0.212 0.1123,0 0.18364,0.08 0.082,0.09 0.0232,0.04 0.0481,0.07 0.0303,0.06 0.009,0.03 0.007,0.03 0.0339,0.137 0.0143,0.163 0,0.02 0.009,0.01 -0.0178,0.278 0.16937,0.724 0.49921,1.502 0.041,0.09 0.11945,0.255 0.14442,0.169 0.0178,0.03 0.3851,0.257 0.0802,0.04 2.8668,1.116 1.383,2.1153 0.11771,1.4139 0.55823,0.72707 0.0458,0.8796 -0.17561,0.64217 -0.44929,1.966 -0.0189,0.51345 0.80496,0.43682 0,0.02 0.33398,0.62528 0.53577,0.22659 0.90507,1.442 1.2152,0.44384 0.025,0.03 0.007,0.02 0,0.129 -0.46533,0.804 1.6364,1.6768 2.088,2.5722 0.0303,0.12 0.67214,1.036 1.3255,0.77503 0.61789,-0.36623 0.54941,1.0489 1.1657,1.0033 1.18,0.26062 1.0688,-0.37538 0.47543,0.21776 0.61561,0.23406 -0.0558,0.36194 -0.8112,0.731 -0.0481,0.153 0.12837,0.344 1.4054,0.80569 0.1457,1.3963 1.5119,1.317 0.21573,0.107 2.0432,0.738 1.2034,0.715 2.1056,-0.417 0.0571,-0.03 0.78803,-0.724 0.0143,-0.02 1.3182,-1.3973 0.73081,-1.4797 3.0126,2.066 2.0876,-1.2709 2.1092,-0.75413 1.2705,-0.53696 0.75009,-0.88698 -0.74377,-0.7155 0.28218,-0.49001 0.108,-0.82755 1.7954,1.037 2.2339,-1.677 0.18542,-0.147 1.8078,-1.429 0.86112,1.237 0.78693,-0.70655 0.77826,-0.50404 0.11836,-0.30902 0.71811,-0.40625 0.363,-0.32517 0.2201,-0.58548 -0.21297,-0.10124 -0.27033,0.41256 -0.56864,-0.14208 0.29893,-0.28017 -0.20669,-0.60536 0.7063,-0.6332 1.0358,-1.254 -1.585,-1.239 1.1895,-3.3749 2.107,-3.2931 1.2444,-2.836 0.33698,-0.81999 -0.28381,-1.7093 1.4232,-1.6756 0.66127,-0.89109 -0.43324,-0.875 0,-0.03 0.009,-0.08 1.1,-1.71 0.47425,-1.688 0.0891,-1.625 0.0303,-1.904 1.7775,0.426 0.36192,0.161 0.33697,0.337 1.0911,1.617 3.079,0.522 1.2462,-1.799 1.8078,-6.976 0.81169,-1.8216 2.4631,1.2747 0.95813,-2.8075 0.38772,-0.39365 0.17315,-0.58856 0.50785,-0.22511 0.0795,0.55151 0.6329,-0.68385 0.21625,-0.74692 0.48656,-0.69373 0.38722,0.21592 0.5854,-1.3159 -0.3105,-0.17393 0.3456,-0.77223 0.51501,-0.95773 0.55744,-0.33611 0.31363,-0.33026 0.0683,-0.48408 0.48209,-0.63792 -0.38897,-0.25075 -0.063,-0.24592 -0.19213,-0.0964 0.40201,-1.1592 -0.39778,-0.11886 0.14721,-0.12984 0.16028,-0.60726 0.45662,-0.80021 0.21518,-0.88435 -0.44589,-0.0266 0.20286,-0.77186 -0.39584,-0.37058 0.0299,-1.5315 2.3966,1.176 3.9526,2.0817 4.138,2.1934 1.0626,-4.5688 m -203.83,67.552 0.016,0.209 0.1141,0.46 0.007,0 0.51347,0.958 0.33696,0.504 0.47603,0.467 0.22464,0.282 0.28882,0.651 0.007,0.02 0.009,0.04 0.10341,0.387 0.009,0.02 -0.009,0.03 -0.0713,0.708 -0.0731,0.217 -0.0143,0.02 -0.0178,0.02 -0.016,0.02 -0.2086,0.107 -0.65788,0.176 0.0303,2.017 0.45998,0.658 1.1161,2.089 0.64183,1.574 1.2141,0.99 3.4962,0.376 0.65075,0.838 -0.68819,2.298 -0.52594,0.305 0,0.53 1.0608,0.563 -0.70601,3.188 -0.60014,0.69835 -0.20025,0.98537 -0.83113,0.0314 -1.1337,-1.0951 -1.2924,3.19 1.164,-0.184 9.3618,-0.676 0.13728,0 0.19968,-0.02 5.4895,-0.396 0.49742,-0.03 7.9783,-0.554 0.28809,-0.71461 -0.94775,-3.4394 1.0715,-0.06 2.9881,0.06 -0.007,0.707 2.9007,-0.338 0.96454,-0.111 5.5608,-0.579 4.0239,-0.394 0.98771,-0.114 5.4074,-0.649 3.6656,0 2.7492,-0.676 3.7922,-0.136 4.1862,-0.176 3.4392,-0.21 6.4201,-0.617 2.5406,-0.46 0.35301,-0.06 5.641,-0.354 3.3589,-0.154 0.1355,0 9.435,-0.884 0.62757,-0.07 4.3556,-0.499 1.0358,-0.103 4.6052,-0.884 3.703,-0.41 8.8626,-1.118 2.8044,-0.29749 3.9748,-0.41786 5.7141,-0.83012 0.91461,-0.137 1.7686,-0.241 3.8474,-0.57688 0.17212,-0.77865 1.7454,-0.209 3.2698,-0.442 -0.57767,0.90581 6.0261,-0.58089 8.228,-0.997 1.166,-0.121 4.0917,-0.643 3.1414,-0.337 7.0209,-0.988 0.47424,-0.08 5.6499,-0.951 3.6959,-0.618 0.73097,-0.136 2.2981,-0.408 2.2428,-0.412 1.453,-0.257 6.1723,-1.116 1.1161,-0.217 4.9992,-0.933 2.3944,-0.481 4.9974,-0.957 2.6369,-0.523 2.3855,-0.456 8.4775,-1.672 2.3623,-0.516 4.4679,-0.91628 -0.13419,-0.20431 7.747,-1.4414 3.1949,-0.675 3.4213,-0.722 4.5838,-0.981 m -79.996,151.57 -0.30309,0.03 -1.6723,0.202 -1.223,0.06 -2.3124,-0.257 -3.063,-0.658 -0.83617,-0.563 -2.1501,1.253 -0.17116,2.484 0.0874,0.474 0.30665,0.465 0.60261,0.788 0.25852,0.706 0.0143,1.537 -0.10519,1.573 -0.10341,1.592 -2.25,0.435 -0.13015,-0.03 -0.40828,-0.321 -0.36905,-0.529 -0.19433,-0.514 -0.57765,-3.221 -4.0346,0.247 -0.80407,0.06 -2.4586,0.176 -2.0895,0.153 -8.8448,0.608 -3.416,0.236 -0.95027,0.06 -5.0277,0.346 -2.6119,0.169 -5.2078,0.355 -1.5083,0.102 -3.8991,0.274 -1.9701,0.137 -9.5419,0.642 -3.4819,-6.283 -9.5954,1.173 -10.597,1.231 -2.9827,0.296 -3.9455,0.401 -5.8995,0.565 -1.8863,0.143 -7.3936,0.659 -8.5489,0.812 -0.44394,3.077 0.25852,0.438 2.0004,2.181 0.62935,0.433 0.11054,0.04 0.32983,0.06 0.66679,0.344 0.88431,0.548 0.24068,0.394 0.0713,0.272 0.0321,0.378 -0.19968,5.023 -0.26565,2.514 -1.2694,0.572 m 161.57,-105.14 -2.4336,-1.736 -9.3048,-6.647 -8.3331,-6.072 -0.25495,-0.177 -4.8779,-3.246 -4.4447,0.723 -7.2973,1.058 -4.4732,0.663 -4.0115,0.592 -0.37797,-0.07 -0.009,-0.218 -0.12837,-2.346 -1.3175,-1.327 -1.494,-1.526 -0.68455,-0.2579 -1.4372,1.5536 -0.62476,-0.42965 0.44815,-1.3492 -0.49188,-0.74684 -5.3022,0.483 -0.72385,0.07 -7.4631,0.788 -1.9772,0.202 -1.7615,0.192 -4.5962,0.475 -2.5994,0.119 -3.8278,2.009 -3.2947,2.25 -2.4176,0.619 -1.9612,0.947 -1.7846,0.863 -0.40293,1.831 -1.7044,1.324 -1.2355,2.243 -0.30666,1.737 0.37084,0.618 4.771,2.933 1.1517,0.803 1.166,0.162 0.2086,-0.105 0.016,0 0.74881,-0.186 0.67392,-0.09 0.39402,0.112 0.19255,0.147 -0.007,0.06 0.62578,0.966 1.9915,2.803 0.7078,1.842 3.3429,4.122 0.78803,1.198 2.8437,1.693 0.11945,0.03 0.26743,-0.104 0.0874,0 1.6402,0.827 0.49742,0.355 1.182,0.972 0.76307,1.439 2.2001,1.92 1.8578,0.786 0.31201,0.291 0.16224,0.153 0.90035,0.852 1.2748,1.487 0.45107,1.742 1.248,1.767 1.7882,1.351 3.2074,1.503 1.576,0.867 3.6549,6.452 0.82903,3.359 2.0093,0.804 0.36906,0.137 1.7116,1.414 2.0396,4.138 0.2496,1.221 0.0998,0.45 0.18185,0.918 0.2496,0.996 0.0892,0.09 1.0858,0.419 3.5746,0.674 m 63.804,-151.15 1.0304,-0.19946 m 5.7308,-1.1092 0.59034,-1.208 6.5467,-2.227 m 1.2373,-10.35 -5.1008,1.115 -0.25852,0.06 -0.6757,0.154 -0.28348,0.05 -0.24425,0.05 -0.066,0.01 -0.895,0.168 -0.36727,0.07 -1.0448,0.199 -0.52238,0.1 -0.0642,0 -1.2284,0.208 -0.54021,0.09 -0.20682,-0.725 -0.19255,-0.658 -0.24068,-0.867 -0.46712,-1.665 -1.223,-4.355 -1.9683,-7.007 -0.64184,-2.289 -0.32091,-1.134 -0.50634,-1.799 -1.6065,-6.0087 c -0.1181,-0.3089 -0.1886,-0.5974 -0.23397,-0.87511 l -0.22409,-0.83818 0.1571,-0.0351 0.0231,-0.0918 0.0561,-0.22342 0.091,-0.29813 0.10239,-0.28128 0.1132,-0.26472 0.1235,-0.24844 0.13328,-0.23247 0.14253,-0.21678 0.15127,-0.20137 0.15947,-0.18627 0.16716,-0.17145 0.17432,-0.15693 0.18096,-0.14268 0.18708,-0.12875 0.19267,-0.11508 0.19775,-0.10172 0.2023,-0.0887 0.20633,-0.0759 0.20983,-0.0634 0.21281,-0.0512 0.21528,-0.0393 0.21721,-0.0276 0.21863,-0.0163 0.21953,-0.005 0.21989,0.005 0.21974,0.0159 0.21906,0.0261 0.21787,0.036 0.21615,0.0456 0.2139,0.0549 0.21114,0.0639 0.20786,0.0726 0.20404,0.081 m 4.349,-38.04 -1.0144,0.731 -0.48138,0.522 -0.41006,0.844 -0.0874,0.256 -0.20859,0.892 -0.0321,0.314 0.0713,0.07 0.0321,0.378 -0.1034,0.691 -0.47425,1.118 -0.68462,0.963 0.0963,0.119 -1.872,3.497 1.6313,1.922 0.0571,0.135 -0.009,0.136 -0.57765,1.77 -0.35123,0.487 -0.2603,0.03 -0.25673,-0.03 -0.1355,0.04 -0.29239,0.686 0.17829,1.387 0.42432,1.641 0.1141,0.208 0.18721,0.362 2.4657,1.006 1.3015,2.619 1.6706,1.012 0.1141,0.06 4.6355,3.56 -0.99855,0.84489 -0.72684,0.0798 -0.21124,0.71388 -1.8324,1.5504 -1.109,1.616 -1.3086,2.433 -0.68641,0.981 -2.1008,0.89552 -1.1037,1.483 -0.82356,1.5955 -0.2292,0.78998 -0.049,0.94306 -0.33871,0.65734 0.18292,1.1643 m 17.35,-25.62 0.0377,-0.45335 -0.14113,-0.5183 0.2219,-0.37502 0.19869,-0.015 0.14734,-0.28922 -0.0182,-0.74781 -0.0641,-0.2123 -0.11107,-0.55693 0.2363,-0.30656 0.39896,-0.11105 0.65066,-0.15787 0.59126,-0.25239 m 0.61099,-1.3933 0.0985,-2.128 0.4569,-2.3499 0.12383,-0.79119 -5.3e-4,-1.9628 -5.95,-1.7665 -0.40114,-0.121 -2.5156,-0.852 -6.3149,-2.209 -1.3675,-1.337 -0.75415,0.08 -1.3514,0.07 -0.29774,-0.138 -1.831,-0.95 -0.52239,-0.497 -0.7381,-0.722 -0.45998,-1.054 -2.7314,-4.901 -1.9853,0.1111 -0.65872,-1.6071 -0.30487,-0.289 -1.0127,-0.713 -0.3227,-0.07 -2.0556,0.456 -10.351,2.243 -0.68106,0.145 -6.8534,1.406 -6.1562,1.231 -0.64361,0.142 -10.735,2.181 -2.3391,0.472 -7.6342,1.441 -1.6919,0.335 -4.8334,0.889 -4.6426,0.903 -0.7399,0.128 -2.3873,0.403 -9.1925,1.629 -0.25673,0.05 -2.2821,0.394 -0.52951,-3.012 -0.44216,-2.549 -0.098,-0.61 m 144.3,-46.196 -0.63706,0.37368 -0.54676,-0.30368 -0.48851,0.03 -0.11232,0.06 -0.13193,0.06 -1.5564,1.15 -0.22913,1.373 -1.3523,-0.023 -0.21751,0.226 -0.43716,0.59429 0.29773,1.226 -0.76805,0.002 -0.10698,0.243 -0.41541,0.987 -5.5465,1.279 -0.0713,0.02 -0.2496,0.06 -4.0649,0.909 -0.49208,0.111 -5.8318,1.262 -2.8936,0.619 -7.7698,1.663 -1.5279,0.321 -3.9847,0.861 -0.14798,5.648 -0.25317,10.141 0.3851,0.779 0.16046,-0.04 7.2242,-1.528 0.73989,-0.167 3.1345,-0.74112 0.2509,0.99379 0.88363,-0.30454 0.0335,-0.96542 3.9575,-0.93571 6.1794,-1.463 0.56161,-0.111 0.7078,-0.146 4.2896,-1.02 0.11232,0.337 4.9011,-1.503 1.9775,-0.55095 0.18762,0.77537 0.54372,2.105 0.65087,-0.29717 0.029,0.28586 0.34232,0.59989 0.002,0.39398 0.14316,0.18518 -0.0776,0.28603 0.11706,0.19297 0.0922,0.30225 0.17135,0.1402 0.11067,0.18005 0.10708,0.0134 1.2362,0.15156 0.86162,0.78465 m 0.62842,0.67933 0.96636,0.15371 0.3784,0.71595 -0.008,0.43305 0.22704,0.16744 0.78051,2.4678 m -205.54,285.58 -0.57587,-1.665 -0.21216,-0.458 -0.14619,-0.262 -0.92888,-1.022 -0.14619,-0.04 -0.16938,0 -0.16937,-0.1 -0.19968,-0.465 -0.27278,-1.632 0.1355,-0.595 0.20859,-0.61 0.24247,-4.901 -2.1377,-5.329 -0.33874,-0.449 0.90748,-4.937 -0.0535,-1.719 2.0895,-4.127 0.0464,-0.07 0.16046,-0.724 -0.19255,-0.383 -0.47424,-0.396 -1.2765,-0.344 -0.12123,-0.136 -0.041,-0.194 0.21573,-0.82 -0.53486,-3.174 -1.8435,-2.05 -1.3889,-3.059 -1.2284,-2.735 -1.544,-5.344 -0.13728,-0.481 -1.8631,-6.725 -0.34588,-1.239 -1.0768,-3.831 -1.5582,-5.611 -0.39401,-1.405 -0.73098,-2.628 -1.2854,-4.644 -1.5761,-5.351 -0.40827,-1.455 -0.22465,-0.789 -1.5119,-5.344 -0.72384,-2.811 m -87.764,7.185 10.929,-0.669 1.494,-0.11 5.4484,-0.353 2.8847,-0.204 3.3732,-0.247 3.6264,-0.282 0.68284,-0.06 7.5754,-0.603 0.31379,-0.02 3.0523,-0.251 3.9954,-0.578 14.217,-1.1 0.23177,-0.02 6.9924,-0.49 0.97701,-0.09 8.6665,-0.854 0.14085,0 8.3349,-0.811 4.828,-0.435 2.4746,-0.257 2.0182,-0.217 1.831,-0.25 5.3254,-0.669 3.1218,-0.367 0.64005,-0.08 2.8704,-0.351 5.5679,-0.685 -0.0695,-5.079 1.5154,-1.334 1.9808,-0.05 0.70424,-0.579 0.43502,-0.594 0.75415,-4.122 0.15333,0.05 5.0206,-3.18 0.42607,0 2.6262,-0.271 0.22643,-0.146 3.1896,-2.525 0.66679,-0.977 -0.0802,-0.437 5.1133,-2.544 0.71136,-3.625 0.83082,-0.21 1.6224,-1.519 1.1553,-1.141 0.3227,-0.234 0.46711,-0.336 0.0874,-0.01 0.27635,0.184 0.35122,0.337 -0.25145,1.3811 1.0062,0.71758 0.70833,-0.79809 0.51588,-0.15063 1.3086,-2.395 3.2787,-2.442 2.7403,0.793 2.1608,-4.042 0.19255,-0.554 0.1355,-0.369 0.84508,-0.947 0.9164,-0.627 0.0232,-0.02 0.0963,-0.06 0.1141,0.263 0.48138,0.154 0.28704,-0.01 0.0339,0 0.38332,-0.129 -0.0695,-1.095 -0.016,-4.4372 m 117.55,-168.71 -0.47077,0.13278 -0.6967,-1.2856 0.41821,-1.017 -0.48092,-2.2341 -1.7187,-8.397 -0.97345,-4.525 -0.50811,-1.0576 -0.70967,-0.14937 -0.46265,-0.79353 -1.0384,0.11388 -0.0446,1.2767 -0.54556,-0.226 -0.0642,-0.09 -0.16224,-1.342 0.0909,-0.933 0.31022,-1.704 -0.59548,-1.157 -0.27991,-0.507 -1.9166,-4.525 -0.0356,-0.08 -0.0392,-0.772 0,-0.749 0.009,-1.902 0.67392,-1.922 -0.67744,-2.2226 0.22812,-1.5374 -0.025,-0.25 -0.009,-0.01 -0.29774,-0.804 -0.22999,-0.499 -0.76486,-0.924 -0.46711,-0.273 -0.26564,-0.224 -0.24342,-0.85773 -0.21152,-0.70406 -0.0333,-1.6736 0.12339,-1.8634 -0.93491,-0.59916 -0.17496,-1.0307 0.31908,-1.0192 -0.1235,-0.9013 -0.60896,-0.70965 0.025,-0.50216 m -30.194,154.15 1.9051,-2.8795 -2.1692,-1.2911 -0.91461,-0.474 -1.0018,1.6476 m -44.205,-10.311 1.8881,11.789 0.5375,-0.20301 1.4158,-1.5436 0.92423,-1.7074 3.2698,-3.945 1.897,0.426 2.8847,-3.971 2.1216,0.844 3.35,-0.184 1.8399,-3.15 0.93244,0.185 0.20859,-0.03 0.62044,-1.143 0.45642,-0.722 0.12123,-0.137 0.10519,-0.04 0.59548,0.02 0.64896,0.07 0.64362,0.241 0.80229,0.581 0.29596,0.328 0.49145,0.54089 0.83697,-0.31276 0.67438,-0.0282 0.8573,-0.31276 0.63372,-0.0892 0.0831,0.60582 -0.77054,0.32126 0.776,1.2116 0.51177,0.27667 0.49876,0.038 0.21889,1.2588 1.1538,0.16126 -0.0703,1.8063 0.68168,0.3835 0.68998,-0.08 1.0942,0.4121 0.95382,-0.22465 0.70077,0.87146 1.5176,0.43709 -0.19207,0.92301 -0.51394,0.19299 -0.0731,0.193 -0.007,0.105 -0.0428,0.289 -0.0214,0.208 0.005,0.02 0.12302,0.392 0.11232,0.136 0.11232,0.08 1.1393,0.765 0.0339,0.01 0.63292,0.04 0.86113,-0.04 0.83616,-0.09 0.98643,0.45194 0.66294,0.2112 0.0304,0.72855 0.38734,0.28294 0.36992,-0.0103 0.25992,0.068 0.85706,-0.10347 0.55251,0.47231 0.74641,0.546 0.76516,0.41139 0.52111,0.96665 0.0895,0.94639 0.0382,0.27715 -0.43324,1.8191 -0.55645,0.41311 -0.24764,0.61848 -0.7196,0.0468 0.96036,1.011 m -95.382,21.408 0.63191,0.19913 1.032,-0.4411 1.491,-0.81395 0.61454,0.032 0.82453,-0.31568 0.30947,-0.47668 0.0321,-0.153 0.0321,-0.168 0.0802,-1.647 0.007,-0.05 0.007,-1.006 0.23716,-0.17737 0.92884,0.0246 0.43536,-0.30324 0.10519,-0.44641 -0.50201,-1.3684 0.0998,-0.62121 -0.3162,-0.378 -0.17291,-0.67761 -0.45241,-0.39081 0.0418,-0.627 0.5502,-0.37521 0.45921,-0.57121 0.0898,-0.55361 -0.12916,-0.75037 0.31921,-0.49711 0.35654,-1.367 0.0553,-0.321 0.50049,-0.50021 0.31963,-0.88779 0.34364,0.0586 0.54007,0.74639 0.65553,-0.11682 0.79983,1.1674 -0.43812,0.81503 0.0642,0.178 0.59427,0.3921 0.76743,-0.36071 0.24216,-0.78817 0.13202,-0.61985 0.78839,0.61591 0.75221,-0.24967 -0.009,-0.47722 -0.50093,-0.47262 0.3208,-0.92552 -0.24776,-0.45186 -0.19255,-0.225 -0.40293,-0.269 -0.19968,-0.146 -0.19255,-0.252 -0.17408,-0.28924 0.71824,-0.0999 0.46937,-0.40238 -0.0805,-1.1698 -0.25733,-0.95367 0.312,-0.69 0.36228,-0.0809 0.006,-0.41083 0.10278,-0.61747 0.36091,-0.20134 1.6733,-0.15864 -0.11287,-1.7781 0.3312,-0.33044 0.66437,-0.635 0.46015,-0.84476 0.33743,-0.0942 0.20147,0.02 0.31833,0.31636 0.50444,0.93337 0.51657,0.1381 1.6997,-1.4789 0.75021,0.0361 0.15999,-0.71514 0.40045,-0.59858 0.68019,-0.2984 0.21068,-0.39231 1.18,-2.2969 1.3224,-1.6516 0.93512,-0.13608 0.32468,-0.76042 -0.0494,-1.304 0.52402,-0.25638 -0.067,-0.59945 -0.74173,-0.68644 0.58981,-1.0492 -0.15055,-0.72905 0.0987,-0.38365 0.44705,-0.44857 -0.53123,-0.95384 0.70262,0.13774 0.2746,-0.24798 -0.32902,-0.81678 0.28979,-0.59958 -0.2231,-0.88996 0.0883,-0.74966 0.008,-0.43804 -0.17022,-0.30979 0.46008,-0.71332 -0.25169,-1.4648 0.2651,-0.5854 0.29924,-1.3774 0.59961,-0.60926 -0.0816,-0.37475 0.19007,-0.79688 -0.38599,-0.67318 0.0216,-0.56786 -0.52034,-0.31698 0.19895,-0.35332 -0.11279,-0.64803 0.20639,-0.64573 -0.0778,-0.53574 -0.43175,-0.44391 -0.24143,-0.65353 -0.43172,-0.43273 -0.41394,-0.31735 -0.0623,-0.48798 0.34873,-0.5693 0.65552,-0.41989 0.39766,0.0748 0.24941,-0.26565 0.6878,-0.52193 m -76.492,-13.91 0.47425,3.81 0.28882,2.394 0.43324,3.56 0.0499,0.425 0.72384,6.06 0.1872,1.535 0.542,4.468 0.42075,3.583 0.56874,5.056 0.11945,0.977 0.70958,7.032 0.2086,2.034 0.48851,4.386 0.41897,3.666 0.12124,1.043 0.51346,4.999 0.52951,4.598 m -54.007,35.885 -0.90748,-2.034 0.86112,-0.03 0.0303,0 0.0392,-0.03 0.0107,-0.02 0.0481,-0.1 0.25673,-5.325 0.10341,-2.411 0.025,-0.112 3.4623,-4.598 1.2783,-3.68 0.34588,-0.941 1.4067,-1.799 0.14263,-0.12 0.17651,-0.322 0.25138,-1.462 0.007,-0.562 -0.68462,-1.471 -0.0392,-0.06 -0.0731,0 -0.14441,-1.146 0.10519,-0.145 0.12836,-0.363 0.0481,-0.733 -1.2765,-2.281 -0.83617,-0.982 -0.36192,-1.235 0.23355,-2.395 0.82012,-5.143 -0.27456,-3.005 -0.58656,-6.363 -0.51347,-6.115 -0.59369,-7.604 -0.0267,-0.328 -0.50455,-5.666 -0.56339,-6.308 -0.32983,-3.592 -0.27278,-3.045 -0.33874,-3.96 -0.46355,-5.498 m -64.896,35.334 -1.1393,-0.08 -0.72563,-0.586 -1.7508,-2.154 -0.0642,-0.16 0.0571,-0.467 -0.041,-0.152 -1.3746,-1.038 -0.36193,-0.226 -3.9366,0.01 -4.0988,0.288 -2.956,0.193 -4.9742,0.337 -1.3264,0.07 -6.6376,0.348 -4.8048,0.223 -3.1735,0.09 -3.769,0.155 -4.1862,0.177 -3.7601,0.117 -4.147,0.1 -2.7866,0.03 -4.9118,-0.02 -4.9974,-0.03 -2.9738,-0.02 -6.7981,-0.07 m 84.663,-140.56 1.815,0.988 3.2306,3.97 1.478,0.312 1.6224,0.337 11.524,2.364 0.86647,0.177 0.67749,0.144 1.0929,0.369 1.1321,0.555 0.97345,0.474 4.081,1.045 0.32983,0.586 2.8116,-0.298 4.6765,0.587 0.0356,0 0.39937,0.06 0.61152,0.296 0.37797,0.252 0.24782,0.158 0.47246,0.676 0.0499,0.07 0.0232,0.08 -0.22465,0.385 -0.25673,0.362 -0.11232,0.09 -0.28169,0.36 -0.009,0.02 -0.0232,0.08 0.1034,0.201 0.0161,0 0.6133,0.498 0.1355,0.03 0.21751,0.06 0.016,0 0.21751,-0.03 3.7993,1.021 0.30488,0.248 0.025,0.02 0.041,0.04 0.48138,0.594 0.16045,4.147 -1.5696,3.4397 2.2064,0.0435 0.84406,-0.85296 1.0418,0.86344 -1.0999,3.3453 0.009,0.02 0.14263,0.472 0.0731,0.122 1.2694,1.342 0.0161,0 0.41719,0.07 0.73097,0.115 m -495.03,256.91 2.0182,0.151 2.6672,-1.654 0.83438,-1.173 0.16937,-0.596 0.18542,-1.512 -0.57052,-1.331 -0.0553,-0.06 -0.0571,-0.07 -1.6723,-0.28 -0.312,-0.137 -0.88609,-0.62 -0.40115,-1.068 -0.0143,-0.04 1.1321,-6.975 1.9273,-0.476 2.3142,-2.731 0.74881,-2.603 0.54555,-2.725 0.10519,-0.747 0.49029,-1.759 0.53843,-0.933 1.7276,-2.442 2.3694,-0.908 1.6242,-0.667 2.4104,-1.39 0.10519,-1.029 -0.8843,-1.546 -1.0216,-1.137 -1.1731,-1.407 -1.1874,-4.999 -0.0642,-0.925 -1.2783,-2.008 -1.0127,-2.635 -0.0161,-0.121 0.0321,-0.321 0.57765,-2.557 -2.5138,-3.742 -6.8159,-10.198 -0.47246,-0.701 -1.2712,-1.895 -3.687,-5.537 -3.6157,-5.383 -0.2086,-0.307 -2.6369,-3.952 -0.6347,-0.949 -4.9172,-7.384 -6.0671,-9.08 -1.15,-1.744 -1.9683,-2.926 -0.34409,-0.513 -9.2424,-13.876 -8.1887,-12.224 -9.8183,-14.771 -2.307,-3.435 -3.4302,-5.135 -4.2343,-6.351 -0.90926,-3.446 0.24247,-1.013 0.28882,-1.198 0.85935,-3.382 0.77911,-2.884 1.6402,-6.212 0.35301,-1.31 1.7347,-6.508 1.1339,-4.3 0.32983,-1.294 1.0358,-4.008 2.0646,-8.221 1.8328,-7.135 4.7014,-18.161 -4.7424,-1.198 -0.65074,-0.167 -6.0493,-1.608 -3.0541,-0.82 -9.3048,-2.603 -13.733,-4.09 -0.9164,-0.282 -0.52238,-0.169 -2.0164,-0.546 -2.209,-0.547 -5.5697,-1.575 -0.42611,-0.121 -0.72206,-0.216 -1.7526,-0.636 -1.2284,-0.255 -4.7496,-1.326 -4.9742,-1.375 -6.3328,-1.993 m 168.04,-122.36 -2.3712,11.097 -1.3746,6.388 -1.1161,5.311 0.47425,0.843 3.0933,6.301 0.0232,0.08 0.025,0.06 0.007,0.03 0,0.09 -0.007,1.287 -0.52238,1.325 -0.44215,1.005 -0.29774,1.865 0.0161,0.569 2.4604,3.4 0.33696,0.288 0.26565,0.234 0.8433,0.41 1.2213,0.489 0.26565,0.194 1.3978,3.148 1.3086,3.054 0.73989,1.382 0.40114,0.74 0.30666,2.323 0,0.01 0.0713,0.195 2.316,3.093 0.22464,0.06 0.10341,0.03 0.68997,0 0.8843,2.19 1.7276,0.372 0.36192,-0.1 0.24961,-0.1 0.41006,-0.08 0.82725,0.112 0.28169,0.233 0.0731,0.07 0.0874,0.09 0.0571,0.266 -0.0963,0.506 -0.55626,1.574 -0.93957,2.163 -1.4067,3.125 -4.4839,11.186 -0.56161,3.077 -0.28169,1.558 -0.0161,0.08 0.0481,0.06 0.7078,0.1 0.6347,0.16 0.20147,0.09 1.1803,1.864 0.14441,0.571 0.65966,0.103 3.1503,-1.446 1.9843,-1.736 1.4138,-0.811 0.32983,0.346 1.5582,2.201 0.0891,0.289 0.18364,1.824 -0.0143,0.683 -0.2086,0.378 -0.041,1.366 0.0232,1.8 2.5156,9.353 2.6672,3.712 0.54734,-0.135 0.57052,0.449 0.68283,0.763 0.30666,0.474 0.35122,1.102 0.46712,2.001 0,0.176 -0.0963,0.177 -0.0642,0.05 -0.0232,2.868 0.19077,1.086 0.44393,0.642 1.3086,1.464 0.41719,0.151 0.32983,-0.184 0.16046,-0.249 0.009,-0.06 0.19255,-0.86 0.23356,-0.361 0.6347,-0.674 1.084,-0.257 5.7462,1.43 2.4425,-0.917 4.475,0.459 3.2395,0.923 2.0895,0.06 2.7795,-3.191 1.831,-0.69 0.77198,0.763 1.3193,2.587 0.71493,2.064 0.18542,0.548 1.3086,1.214 m 116.93,-19.792 -0.10519,1.453 -1.2373,15.326 -0.69888,4.917 -0.80408,9.788 -0.73989,8.968 -0.0784,0.898 -0.57051,6.606 -0.67571,8.06 -0.0481,0.58 -0.90748,10.982 9.1586,0.749 8.4294,0.651 3.4873,0.265 11.877,0.817 3.4623,0.226 4.179,0.321 6.6608,0.346 5.3771,0.282 6.0742,0.281 3.2626,0.154 1.1981,0.06 1.3336,0.07 11.129,0.467 4.6854,0.168 12.671,0.371 3.104,2.784 2.3605,1.07 1.8328,1.582 0.36192,0.16 0.29774,0.05 0.27991,-0.01 0.85221,-0.129 0.22464,-0.139 0.47425,-0.431 0.353,-0.506 0.42993,-0.44376 0.0768,-0.69793 1.013,-0.12928 0.41827,0.55597 0.55227,0.12024 0.47229,-0.69024 0.59944,0.15421 0.41154,0.58529 0.57947,-0.56211 0.75703,0.009 0.13903,0.46347 0.34699,-0.0287 0.96522,-0.36538 1.0816,0.23032 0.90705,-0.39029 0.75114,-0.18169 0.99904,0.5016 1.1391,0.0813 -0.0572,0.9863 0.99446,0.77792 2.0806,0.596 3.5212,1.315 1.3728,0.869 0.18541,0.419 0.0963,0.385 -0.0642,0.271 -0.009,0.21 0.0499,0.209 1.2052,1.792 3.2466,0.829 -0.60439,-1.666 -0.60975,-1.606 -0.43502,-0.699 -0.55447,-0.515 -0.44037,-0.337 0.67393,-3.084 0.6757,-1.801 1.1642,-4.019 0.26565,-0.708 0.0481,-0.158 -0.64361,-2.314 -0.15868,-0.08 -1.1981,0 -0.37083,-0.836 -0.0929,-1.066 1.0895,-0.0404 -0.0335,-1.6183 -1.2164,-1.2484 -0.0338,-1.5788 2.4247,0.02 m -11.289,-126.19 -0.0731,0.07 -0.0713,0.337 -0.0178,0.339 0.0892,0.481 1.1089,3.623 0.29774,0.884 0.67571,1.535 -1.0296,3.178 0.45731,0.495 0.0981,5.48 -0.50634,1.953 -0.009,0.467 0.36192,1.453 1.4958,5.391 2.0236,4.621 0.53843,3.962 0.2817,5.978 0.0802,1.993 0.0232,2.908 0.66679,2.186 0.19434,0.531 -0.30666,4.998 0.009,1.29 0.68284,1.988 2.209,5.32 0.61153,4.821 0.0481,0.403 -0.0321,0.465 -0.0392,0.145 -0.29774,0.836 0.21751,1.993 -0.0891,1.004 0,0.05 -0.009,0.03 -0.0713,0.61 -0.0571,0.497 -0.0392,0.209 -0.016,0.114 -0.016,0.05 -0.016,0.03 -0.025,0.06 -1.125,1.671 -0.32805,0.33 -0.61866,0.337 -0.55625,0.362 -1.4691,1.18 -0.025,0.03 -0.0321,0.04 -0.025,0.02 -0.0553,0.128 -0.22464,0.771 0.0642,0.09 0.28883,0.369 1.125,1.503 1.1188,2.4545 1.2435,0.1645 1.5511,0.756 0.52951,0.426 0.30665,0.706 0.26565,1.326 -0.0178,6.702 -0.0321,7.98 -0.0143,2.017 -0.0499,7.987 -0.0481,8.003 -0.0321,8.06 6.6608,0.02 3.1913,0 6.7749,-0.04 1.109,0 7.866,-0.07 1.0127,-0.02 6.8462,-0.1 3.2555,-0.05 4.6034,-0.07 5.3593,-0.121 2.5245,-0.06 7.456,-0.215 0.41006,-0.02 7.8428,-0.28 1.7365,-0.06 6.1295,-0.25 5.8193,-0.248 1.9843,-0.09 6.5396,-0.314 m -434.37,-2.74 8.5096,-37.886 1.7757,-4.307 0.48138,-0.804 0.78089,-1.478 0.62579,-2.555 0.81299,-0.997 0.0232,-0.04 0.0232,-0.05 0.0321,-0.06 0.009,0 0,-0.02 0.0232,-0.234 -0.0553,-0.176 -0.0161,-0.03 -0.85221,-1.686 -0.16759,-0.105 -0.63648,-0.225 -0.0874,0 -0.15333,0.07 -2.0004,-0.811 -0.24069,-0.408 -0.0321,-0.33 0.0232,-0.194 0.041,-0.122 0.55448,-3.783 0.20146,-0.403 3.5586,-4.892 0.37797,-0.339 0.11232,-0.05 0.39401,-0.09 1.535,-0.523 0.87539,-0.941 0.48316,-0.513 0.37619,-0.403 0.53842,-0.931 0.016,-0.02 -0.0232,-0.185 -0.0963,-0.225 -0.0571,-0.225 -0.016,-0.465 0.40114,-0.836 0.50812,-0.467 0.77912,-0.706 2.4015,-3.914 0.54556,-1.15 2.7813,-3.567 1.5422,-1.576 0.38688,-0.441 0.0642,-0.29 -0.55448,-2.908 -0.10519,-0.442 -0.312,-0.396 -0.27456,-0.353 -0.007,0 -0.58657,-0.257 -1.3996,-1.287 -0.73098,-0.674 -0.0481,-0.09 -0.0713,-0.136 -1.1321,-3.528 -8.8163,-2.057 -1.9202,-0.466 -5.8425,-1.406 -0.29595,-0.07 -15.445,-3.703 -0.45106,0.378 -0.3441,0.151 -1.1731,0.339 -0.57052,0.09 -0.69889,-0.05 -0.41006,-0.103 -0.44215,-0.227 -2.4104,-0.33 -0.90926,-0.05 -0.90748,-0.06 -1.0784,-0.44268 -0.59088,-0.32062 -0.84956,0.59188 -0.59943,0.55642 -1.6706,-0.159 -1.535,-0.16 -2.1983,0 -2.4229,0.296 -0.51347,0.128 -0.83617,0.635 -3.1664,-0.193 -1.2534,-0.217 -0.32805,-0.216 -0.19433,-0.281 -0.41719,-0.787 -0.44929,-0.315 -0.68462,-0.168 -0.33696,0.112 -0.69175,0.33 -1.7187,0.241 -1.4138,0.217 -0.83616,0.257 -0.34588,-0.458 -1.419,-0.64655 -2.0398,0.83215 -0.254,-1.6655 -2.1207,-1.2511 -0.55447,-0.113 -1.1,-0.162 -1.0947,-0.948 -1.7258,-0.03 -1.3265,-0.104 -0.43502,-0.105 -1.1072,-0.61 -0.94849,0.06 -0.68284,0.353 -0.45106,0.403 -5.7052,0.796 -0.29774,0 -0.45641,-0.122 -0.52416,-0.256 -4.459,-2.748 -0.42611,-0.322 -0.81834,-0.86 -0.31378,-0.401 -0.01605,-0.563 0.15333,-0.418 0.34409,-0.579 0.41897,-2.804 0.11945,-0.378 0.14441,-2.186 -0.44928,-2.505 -0.15333,-0.605 -2.5941,-3.18 -0.75594,-0.314 -0.82012,0.152 -2.4818,-0.104 -0.12124,-0.04 -0.67392,-1.052 0.35122,-1.028 -0.16759,-0.539 -0.23356,-0.417 -0.06418,-0.105 -0.04814,-0.03 -0.08914,-0.06 -1.0358,-0.06 m 459.25,277.22 -7.103,0.06 -1.1981,0 -6.0974,0.06 -2.0913,0 -4.8209,0.03 -3.8956,0 -9.5722,-0.03 -4.0899,-0.02 -7.2474,-0.07 -5.7373,-0.07 -6.1955,-0.107 -5.6499,-0.105 -4.2824,-0.09 -3.6068,-0.114 -8.3082,-0.257 -8.2939,-0.282 -1.5511,-0.06 -8.4062,-0.385 -1.5814,-0.07 -9.9074,-0.408 -5.682,-0.241 -2.209,-0.112 -8.8965,-0.443 -8.6059,-0.474 -0.25674,-0.02 m 260.83,150.42 -1.0198,-8.363 -0.73811,-5.996 -0.34053,-2.655 -0.93065,-7.341 -0.76485,-5.994 -0.46533,-4.508 0.13015,-7.707 0.0464,-1.879 0.13728,-6.245 0.1355,-8.132 0.0267,-1.439 0.1355,-6.896 0.10519,-5.703 0.10162,-4.894 0.18542,-7.28 0.0178,-0.658 0.11945,-5.452 0.0731,-3.298 0.0642,-2.756 0.19255,-7.226 -2.1074,-2.225 m -53.058,49.651 -1.8952,0.07 -3.2787,0.134 -0.47424,0.03 -11.676,0.474 -12.592,0.339 -5.0616,0.1 -4.7959,0.13 -4.8369,0.128 -0.58835,0 -5.4467,0.121 -0.18542,0 -4.3859,0.1 m -168.63,-282.27 -15.903,-1.503 -1.1457,-0.10895 -11.967,-1.201 -3.0873,-0.16008 -3.6627,-0.39692 -10.109,-1.182 -3.1022,-0.378 -0.85935,-0.177 -7.6592,-0.939 -4.6035,-0.56442 -5.7603,-0.71258 -6.0029,-0.813 -4.9903,-0.659 -2.1305,-0.289 -0.32804,-0.05 -2.9899,-0.547 -8.5417,-1.157 -3.6638,-0.57 -1.3514,-0.211 -1.815,-0.09 -5.3433,-0.724 -0.041,0 -2.4194,-0.378 -0.70602,-0.243 -2.0004,-0.408 -2.7082,-0.419 -1.3978,7.595 -0.59548,4.388 -1.7686,11.168 -1.7116,11.002 -0.59813,3.9591 -1.1295,7.0089 -1.8863,11.557 -1.8738,11.679 -1.535,9.644 -1.1963,7.499 -0.93244,5.801 9.2959,1.535 7.7305,1.109 0.8112,0.121 0.0178,0 2.4657,0.353 2.3944,0.337 0.66857,0.1 8.0176,1.07 2.6939,0.392 13.667,1.84 5.6891,0.685 10.293,1.243 7.8928,0.929 9.1836,1.114 2.2339,0.265 15.686,1.607 5.7302,0.554 15.308,1.296 8.2279,0.674 3.3019,0.255 12.551,0.918 0.55626,0.03 9.8022,0.656 -0.36192,5.842 -0.0802,1.207 -0.3851,5.955 -0.13728,2.097 -0.50634,8.001 11.186,0.694 1.519,0.08 9.8824,0.529 0.34766,0.03 9.5294,0.457 0.27278,0.02 9.6302,0.385 7.8402,0.281 1.9594,0.06 5.9548,0.185 3.8813,0.105 4.0328,0.09 5.9869,0.144 1.9291,0.04 7.9142,0.127 7.932,0.105 1.9362,0.02 5.9797,0.05 3.9277,0.02 7.891,0 7.8428,-0.03 0.55447,0 m -344.96,-175.16 -0.0981,-1.59 0.76485,-2.108 -0.0981,-1.975 -0.15333,-1.27 -0.0232,-0.08 -0.50455,-2.034 0.33696,-1.004 0.58657,-2.596 2.94,-13.08 0.66857,-2.942 0.53665,-2.386 3.0291,-13.621 0.34588,-1.517 4.1309,-17.759 0.77911,-3.384 m 544.87,306.7 3.703,-1.986 1.0631,-0.20406 3.6282,-2.1982 0.93362,-0.15877 0.75297,-2.4929 1.6759,-0.11084 1.251,-0.99026 0.37797,-0.661 0.0731,-1.742 0.79182,-0.73517 1.5262,-0.79706 -0.0918,-1.9219 2.5304,-2.4119 0.20147,-0.137 0.70601,-0.506 2.7153,-1.532 0.6757,-0.872 5.2809,-6.347 m 165.79,-165.23 -2.2482,-0.901 -0.624,-2.506 -0.0499,-0.06 -1.9433,-1.159 -0.80586,-0.401 -0.29595,-0.153 -0.46712,-0.649 -0.15154,-0.323 -0.12302,-0.513 -0.27991,-3.135 -2.0253,-5.279 -3.284,-10.872 -3.0148,-9.586 -0.24068,-0.772 -3.3999,-10.253 -0.61865,-1.767 m -4.8369,8.235 -0.38688,0.795 1.1343,1.6715 -1.1575,3.9715 0.1355,0.383 0.60439,0.596 0.73811,0.907 0.40293,0.499 0.0713,0.114 0.41719,0.674 -0.53806,1.0829 0.32234,0.91809 -0.18542,0.515 -0.0802,0.137 -0.79516,1.398 -0.066,0.103 -0.0945,0.138 -0.22464,0.29 -0.041,0.06 -0.51525,0.378 -0.34409,-0.03 -1.0768,1.397 -1.125,0.708 -1.1125,0.692 -0.0838,0.08 -0.0499,0.04 -0.53843,0.972 -0.0553,0.234 0,0.144 0.52773,1.84 0.29953,0.403 0.27277,0.217 -0.0613,1.2858 0.39548,0.28491 -0.30109,0.91455 -0.44451,1.7288 0.53008,0.4372 -0.0985,1.249 -0.71253,1.1626 0.22275,1.2167 0.0275,0.99352 -0.51013,1.1576 -0.31231,0.20594 -0.39109,0.84349 0.20265,0.56513 -0.24805,1.2853 0.23913,0.27352 -0.79544,1.0393 0.17679,1.0177 0.47858,3.6804 0.31836,-0.0164 -0.0213,0.67393 0.36536,0.22607 -0.0731,2.01 0.0642,1.695 0.49157,1.2321 -0.15887,1.4514 0.38994,1.3392 -0.97856,1.037 0.20726,0.9198 -0.3482,0.9948 0.38928,0.62114 0.52467,0.6805 1.8381,1.478 m -13.138,19.375 1.5743,8.743 0.54556,3.182 0.62757,3.68 0.2817,1.622 1.6114,1.4831 -2.264,2.3349 -1.2516,1.278 1.7971,2.312 m -356.71,148.89 9.9252,-0.159 3.8653,-0.08 5.1757,-0.129 4.9403,-0.121 0.35479,0 8.0978,-0.241 1.5048,-0.05 4.459,-0.153 6.9496,-0.287 0.54734,-0.03 8.219,-0.369 4.0774,-0.146 0.78624,-0.02 5.1436,-0.272 6.265,-0.355 3.8189,-0.207 6.5164,-0.371 0.49029,-0.03 0.72385,-0.02 1.6385,2.314 0.17828,0.239 0.11945,1.826 -0.19433,0.529 -0.12836,0.202 -2.0093,1.766 -2.8401,4.943 1.4673,-0.1 6.0742,-0.433 4.8115,-0.314 m 40.044,-137.18 5.1097,-0.49 5.0634,-0.522 2.7724,-0.296 4.6034,-0.467 2.2339,-0.239 6.2365,-0.717 1.6224,-0.175 6.3007,-0.739 0.49742,1.428 6.8712,-1.052 0.64897,-0.104 8.1014,-1.326 1.9772,-0.346 5.2131,-0.884 m 4.4447,156.94 3.5782,-0.419 2.3035,-0.289 1.2801,-0.167 7.1725,-1.045 1.2159,-0.194 6.9336,-1.092 m -119.71,-22.533 -0.36841,0.81812 -0.46351,0.41406 -0.38003,-0.2585 -0.16281,-0.85068 m -374.58,105.87 3.4962,-24.959 1.1161,-8.021 1.3657,-9.857 1.8096,-13.026 2.5459,-18.337 1.2052,-8.718 3.3037,-23.908 3.1735,-22.867 1.5743,-11.154 1.2765,-9.094 0.86112,-6.237 0.78803,-8.01 0.69889,-5.048 0.69175,-4.227 0.12837,-0.884 0.60974,-4.172 0.77198,-5.552 0.41898,-3.004 0.51346,-3.737 3.1985,-22.789 1.0768,-7.964 m 576.87,7.451 -5.9637,1.277 -1.6795,0.363 -0.11233,0.02 -5.666,1.188 -3.7422,0.779 -3.6584,0.763 -3.7387,0.756 -4.1755,0.827 -0.16759,0.03 -10.874,2.058 -4.2094,0.795 -0.65253,0.121 -7.3918,1.364 -2.118,0.387 -7.9659,1.455 -1.4637,0.263 -4.976,0.878 -2.6333,0.449 -8.7503,1.462 -1.7026,0.274 -0.90035,-5.512 -0.20146,-1.23 -0.53487,-3.277 -0.88786,-5.474 -0.30488,-1.792 -0.60974,-3.688 -0.79516,-4.857 -0.20324,-1.105 -0.82904,-5.151 -0.0303,-0.185 -1.3407,-8.123 -0.0428,-0.25 -1.3086,-7.987 -0.47781,-2.917 m 144.94,-31.435 1.8096,6.307 0.4992,1.897 1.2714,5.1745 -0.42431,-0.0206 -0.28257,0.33789 0.0187,0.36691 0.23939,0.21763 0.0616,0.45272 0.16757,0.308 0.0352,0.19037 -0.18216,0.29169 -0.0697,0.38137 -0.18886,0.0696 m -665.09,16.085 -7.7377,-1.205 -10.116,-1.637 -0.91818,-0.146 -1.2284,-0.317 -0.009,0 -3.5515,-0.614 -4.3306,-0.748 -11.628,-1.967 -0.49029,-0.08 -5.584,-0.95 -0.53129,-0.09 -1.4299,-0.249 -0.19968,-0.04 -1.3425,-0.32 -1.1179,-0.282 -4.3466,22.589 -3.9294,20.07 -0.93244,4.799 -1.5992,8.26 -3.8243,19.694 -0.46711,2.38 -1.847,9.658 -2.4265,12.367 -2.6119,13.757 -0.69176,3.584 -0.72206,3.786 -0.0891,0.462 -0.73098,4.172 -0.44215,2.316 -0.77912,4.042 -2.3302,3.148 -0.2496,0.282 -0.0963,0.06 -0.016,0 -1.1161,-0.02 -0.36192,-0.04 -0.0963,-0.02 -0.23356,-0.178 -0.16046,-0.168 -0.4261,-0.676 -0.12837,-0.385 -0.0161,-0.192 -0.009,-0.05 -0.0321,-0.176 -0.22464,-0.563 -0.54556,-0.772 -0.2496,-0.234 -2.3391,-0.69 -1.059,-0.217 -1.1268,0 -2.0574,0.483 -0.18363,0.1 -0.24961,0.225 -0.016,0.146 -0.23356,2.25 -0.49742,6.588 -0.22464,4.027 0.24069,2.844 0.16759,1.348 0.025,0.675 -0.12837,2.805 -0.0232,0.513 -0.0981,0.458 -0.16758,0.548 -1.7205,2.875 m 211.67,-156.87 -0.75594,8.959 -1.1892,14.054 -0.60261,7.002 -0.25852,3.082 -0.32805,3.948 -0.77911,9.033 m 182.05,266.8 -1.343,-0.76577 -0.72864,-1.7947 1.7489,-1.4262 0.14441,-1.1383 2.291,-3.194 0.0143,-4.441 -0.59727,-3.621 0.76842,-0.647 0.0802,-0.2 0.007,-0.119 -0.27991,-1.433 -0.55447,-0.669 -0.0571,-0.06 0.22464,-0.804 2.8205,-5.311 0.35479,-1.542 -0.0731,-7.288 -0.91461,0.24 -0.20325,-1.189 -0.1355,-0.754 -0.58656,-2.557 -1.8007,-2.612 -2.1127,-2.219 -0.98058,-5.919 -2.7403,-3.062 -0.62579,-4.967 -0.0981,-4.523 -0.15155,-6.935 -0.0802,-4.34 -0.0713,-3.189 -0.12124,-5.811 -0.13728,-6.493 -0.4582,-0.378 -0.353,-0.144 -1.8488,-0.371 -1.0697,0.155 -0.27991,0.03 -0.0963,0.09 -1.8488,0.938 -1.0287,-0.561 -0.27991,-0.184 -0.7809,-0.499 -0.12658,-0.17 -0.1462,-0.335 -0.15154,-0.394 -4.9742,-1.431 -2.3623,-0.965 -3.2626,-2.612 -2.2268,-1.904 -1.2052,-0.403 -0.13549,0 -0.0642,0.03 -0.0267,0 -0.40828,0.619 -0.009,0.03 0,0.04 -0.007,0.02 0.007,0.02 0.0731,0.154 0,0.03 0.0321,0.2 -0.0321,0.232 -0.10341,0.233 -0.10697,0.104 -0.50634,0.33 -0.14976,0.02 -0.28169,0.03 -0.55448,0.07 -0.009,0 -1.2872,0.06 -0.71315,-0.06 -1.8809,-0.25 -0.0713,-0.06 -0.0749,-0.128 0,-0.02 -0.005,-0.118 0.0571,-0.162 0.005,-0.153 -0.20147,-0.514 -0.14441,-0.06 -0.61687,-0.03 -1.3906,0.722 -1.5957,0.833 -1.6349,0.615 -0.92353,-0.17 -1.1,-0.217 -0.25851,0.03 -0.41006,0.03 -2.1377,0.178 -0.96454,0.223 -0.16046,0.563 -0.11945,0.555 -0.009,0.06 -0.016,0.06 -0.0553,0.177 -0.0481,0.153 -0.009,0.02 -0.0232,0.03 -0.17828,0.186 -0.0232,0.03 -0.34588,0.148 -0.39401,0.105 -2.8366,0.701 -0.18363,-0.251 -0.82725,-1.125 -0.24961,-0.08 -0.22464,-0.02 -0.97344,0.185 -0.025,0 -0.17651,-0.121 -1.9522,-1.311 -0.0161,-0.06 -0.016,-0.111 -0.016,-0.283 0.0642,-0.369 -1.9041,0.859 -0.0161,0 -0.92352,0.155 -1.7936,-0.549 -0.19255,-0.133 -0.312,-0.35 -0.96454,-1.982 -0.18541,0.103 -2.8597,4.96 -0.0891,0.119 -0.19255,0.154 -0.27278,0.09 -0.30487,-0.04 -0.26565,-0.09 -1.028,-1.6856 0.68272,-2.0736 -1.3691,-0.73539 -2.7075,2.3751 -1.1157,-0.30053 -0.16759,-0.112 -0.11232,-0.135 -0.0161,-0.04 -0.0499,-0.12 -0.37618,-1.718 -1.4637,0.394 -0.68284,-0.477 -1.9362,-1.292 -0.65074,0.82 -0.99663,1.036 -0.94849,0.747 -0.59369,0.176 -0.22643,-0.02 -1.6777,-0.765 -0.21037,-0.194 0.49028,-1.061 0.16225,-1.237 -0.7078,-0.28 -0.65967,0.16 -0.43326,0 -0.80408,-0.24 -0.0321,0 -0.0481,-0.05 -0.32983,-0.659 -1.1482,-1.888 -2.9417,-0.924 -0.72385,-0.162 -0.36905,0.209 -0.76307,0.964 -1.0127,0.909 -0.016,0.02 -0.007,0 -0.54021,-0.194 -0.89856,-1.446 -0.43324,-0.369 -0.41897,-0.276 -0.19255,-0.01 -1.7205,0.53 -1.2373,-0.05 -1.7436,-0.427 -1.7508,-1.046 -0.29061,-0.134 -1.7436,-0.137 -0.76307,0.01 -0.35301,0.02 -0.7078,-0.16 -0.3851,-0.12 -0.24069,-0.07 -0.009,-0.01 -0.32805,-1.783 0.0161,-0.499 0.0232,-0.531 0,-0.02 -0.89143,-1.551 -0.94136,-0.507 -0.82725,-0.449 -0.8112,1.453 -0.007,0.02 -0.025,0.04 -0.016,0 -0.14441,0.06 -0.63471,-0.06 -0.61865,-0.587 -0.46711,-0.272 -0.28883,-0.122 -0.90035,-0.105 -0.20859,-0.03 -0.10341,0.04 -0.73276,0.925 -0.89144,0 -0.57943,-0.137 -1.3175,-1.253 -0.47424,-0.562 -0.98058,-1.271 -2.7545,-1.373 0.12836,-4.275 0.27278,-6.565 0.15333,-3.519 0.23177,-5.547 0.19433,-4.546 0.24782,-6.06 0.16938,-4.04 0.37796,-10.278 -9.9484,-0.444 -7.4809,-0.376 -2.4033,-0.12 -9.8682,-0.563 -7.4791,-0.473 -2.3873,-0.155 -15.372,-1.068 m 119.35,-213.44 -10.681,-0.106 -12.045,-0.217 -0.47424,-0.02 -11.498,-0.344 -4.5089,-0.161 -11.434,-0.435 -2.603,-0.119 -9.9252,-0.483 -0.19968,0 -3.6478,-0.186 -0.36192,-0.02 -0.13015,0 -1.9273,-0.1 -1.4548,-0.08 -4.6604,-0.257 -1.6385,-0.09 -0.93244,-0.06 -2.0093,-0.113 -2.4283,-0.153 -2.3052,-0.136 -1.9362,-0.121 -0.25852,-0.02 -0.15868,-0.02 -15.092,-1.045 -0.85934,-0.06 -16.802,-1.334 0.64183,-7.657 0.51525,-5.955 0.19255,-2.3 1.3336,-15.7 0.13728,-1.535 1.1642,-13.612 0.71493,-8.936 0.45819,-5.544 0.69176,-8.292"
       inkscape:connector-curvature="0"
       style="fill:none;stroke:#000000;stroke-width:0.89143002" />
  </g>
  <g
     inkscape:groupmode="layer"
     id="layer4"
     inkscape:label="Borders"
     style="display:none"
     transform="translate(0,-127.07001)">
    <g
       style="fill:none;stroke:#a9a9a9;stroke-width:2.3177309"
       id="separator">
      <path
         style="fill:none;stroke:#a9a9a9;stroke-width:2.3177309"
         d="m 275.15,525.53 0,63.053 41.271,37.326 m -315.26,-178.34 197.18,0 76.81,77.957 98.592,0 60.76,61.907 0,38.472"
         id="separatorAK,HI"
         inkscape:connector-curvature="0" />
    </g>
  </g>
</svg>
